<svg xmlns="http://www.w3.org/2000/svg" viewBox="0 0 800 800" width="800" height="800">
  <defs>
    <linearGradient id="conGrad" x1="0" y1="0" x2="1" y2="1">
      <stop offset="0%" stop-color="#22d3ee" stop-opacity="0.6"/>
      <stop offset="50%" stop-color="#a78bfa" stop-opacity="0.4"/>
      <stop offset="100%" stop-color="#fde68a" stop-opacity="0.3"/>
    </linearGradient>
    <filter id="conGlow"><feGaussianBlur stdDeviation="2"/></filter>
    <filter id="starBlur"><feGaussianBlur stdDeviation="4"/></filter>
  </defs>
  <rect width="800" height="800" fill="transparent"/>
  <circle cx="193.21189765817311" cy="539.6837534264175" r="1.9975091993903908" fill="white" opacity="0.3136004856945317"/>
  <circle cx="397.8806527174628" cy="611.8819431096774" r="1.732053297701933" fill="white" opacity="0.21695119651350564"/>
  <circle cx="734.4897700784305" cy="753.4827533369942" r="0.768918314908061" fill="white" opacity="0.39041740394160473"/>
  <circle cx="269.6402320411099" cy="794.7032994990802" r="0.9100555651745337" fill="white" opacity="0.19572689662907475"/>
  <circle cx="378.67870389762015" cy="161.1799687107565" r="0.5943660773163412" fill="white" opacity="0.25024920769643333"/>
  <circle cx="231.74955625278395" cy="442.97567894789535" r="0.9256316232247166" fill="white" opacity="0.16417946451691467"/>
  <circle cx="349.8762183864757" cy="698.7957572499886" r="1.6266499944926074" fill="white" opacity="0.2446946269479797"/>
  <circle cx="349.07903201830084" cy="555.3550253054703" r="0.6184411269183309" fill="white" opacity="0.3100616998859381"/>
  <circle cx="676.3653077793962" cy="235.5053027217636" r="1.960716441137214" fill="white" opacity="0.4878151554882134"/>
  <circle cx="201.07882064829852" cy="288.2293598029831" r="0.5700308845127102" fill="white" opacity="0.10671126013891308"/>
  <circle cx="678.5167539844279" cy="390.9644724570443" r="1.7500578957306137" fill="white" opacity="0.4834908182058969"/>
  <circle cx="407.30167717961893" cy="334.9795445926729" r="1.242152320087253" fill="white" opacity="0.16741152978218488"/>
  <circle cx="509.3187300355364" cy="317.4369738611662" r="1.4233412185986989" fill="white" opacity="0.32689358763694143"/>
  <circle cx="791.7830415033787" cy="246.05141983537058" r="1.7060199665334825" fill="white" opacity="0.236823598480409"/>
  <circle cx="206.48067903288057" cy="447.0770458040532" r="1.92447011041261" fill="white" opacity="0.3523021633660869"/>
  <circle cx="47.72390020152892" cy="789.8722004125757" r="0.94998057137581" fill="white" opacity="0.4597137611814087"/>
  <circle cx="484.6749353587497" cy="661.8934431881869" r="1.237623251888341" fill="white" opacity="0.3077736934334002"/>
  <circle cx="45.86248089265999" cy="453.9642434802581" r="0.9657947089928419" fill="white" opacity="0.17653798735824827"/>
  <circle cx="141.19723538718222" cy="650.5080990442934" r="1.1471032338214258" fill="white" opacity="0.3359932499593863"/>
  <circle cx="152.89905428142268" cy="215.48985357059092" r="0.9920037071669514" fill="white" opacity="0.4798802800684252"/>
  <circle cx="67.65620310084523" cy="464.52192742745586" r="1.5249328948107972" fill="white" opacity="0.20130131144290786"/>
  <circle cx="519.0246850947187" cy="708.1216828352987" r="1.3020925757628363" fill="white" opacity="0.3920324714127138"/>
  <circle cx="569.2068592180937" cy="468.77380414226656" r="1.53426365227409" fill="white" opacity="0.2694474359858302"/>
  <circle cx="762.1379073997988" cy="567.0013587465144" r="1.2148091043985516" fill="white" opacity="0.22316353365151673"/>
  <circle cx="219.96654916848746" cy="75.1401009908224" r="1.9986717042112334" fill="white" opacity="0.1077159828032151"/>
  <circle cx="569.064169068733" cy="540.9082531914363" r="0.8245950651487772" fill="white" opacity="0.3351253055096586"/>
  <circle cx="312.76614853807916" cy="764.0888239918393" r="0.7294786663780848" fill="white" opacity="0.20808380069511703"/>
  <circle cx="389.98509600899877" cy="351.3039862928589" r="0.6085828157337565" fill="white" opacity="0.4616851101808175"/>
  <circle cx="144.58798010407605" cy="690.1076398486225" r="0.7201392364311796" fill="white" opacity="0.24361289193506197"/>
  <circle cx="470.53040598170844" cy="643.1004526835525" r="0.6467562185012964" fill="white" opacity="0.36654298274599484"/>
  <circle cx="751.511217616025" cy="599.0024467053499" r="1.30749704364386" fill="white" opacity="0.21167843062952932"/>
  <circle cx="506.18767117259125" cy="6.953706118421277" r="1.1226384855119995" fill="white" opacity="0.40170076664966015"/>
  <circle cx="462.65795532009645" cy="732.7898170577829" r="0.9568229677499046" fill="white" opacity="0.1788510125118672"/>
  <circle cx="565.6400481254484" cy="215.07060663588317" r="0.9874941056218312" fill="white" opacity="0.44821781092063795"/>
  <circle cx="775.3720722871377" cy="331.8151760557426" r="1.7405054430900926" fill="white" opacity="0.11370781387482083"/>
  <circle cx="581.1147103201085" cy="169.1451575855246" r="1.5481896231819725" fill="white" opacity="0.40905562659003103"/>
  <circle cx="194.12749156091306" cy="296.8364377184726" r="1.45917417340659" fill="white" opacity="0.3517823868273665"/>
  <circle cx="446.71330913581227" cy="637.502850532358" r="1.8152209463411866" fill="white" opacity="0.49482959821338324"/>
  <circle cx="572.7681799080865" cy="788.614436848208" r="0.7142919484780419" fill="white" opacity="0.4527320968846018"/>
  <circle cx="675.0882257393995" cy="297.5703621289564" r="1.3713424342259586" fill="white" opacity="0.250774367889802"/>
  <circle cx="535.3999494005375" cy="725.3597390608096" r="0.7184840557359172" fill="white" opacity="0.2082151666438711"/>
  <circle cx="363.7814597699951" cy="28.011915785690178" r="1.1489894518363732" fill="white" opacity="0.25869970389547725"/>
  <circle cx="678.0909373172346" cy="611.2628456067902" r="1.8106297437020868" fill="white" opacity="0.22814466026018684"/>
  <circle cx="280.4616764455004" cy="462.216243270949" r="0.8349565776235413" fill="white" opacity="0.1425578448908733"/>
  <circle cx="352.35007510965016" cy="217.55086719327022" r="0.7679385716815594" fill="white" opacity="0.20586629731603845"/>
  <circle cx="542.8986324946823" cy="173.4365318043243" r="0.5262367642126236" fill="white" opacity="0.2902534624144198"/>
  <circle cx="387.2051262741217" cy="403.9239419239184" r="0.7180020582666959" fill="white" opacity="0.2938448832327061"/>
  <circle cx="351.6654169935399" cy="243.37627939895148" r="0.6253310721664123" fill="white" opacity="0.30411381016057004"/>
  <circle cx="130.09383451093726" cy="619.8848928888891" r="0.9874519236387832" fill="white" opacity="0.4404462956933093"/>
  <circle cx="795.969434231235" cy="697.3953219099944" r="0.5328535093110068" fill="white" opacity="0.14363473679153282"/>
  <circle cx="168.94647195939933" cy="766.9340940515131" r="0.5944534228638052" fill="white" opacity="0.3048620414755885"/>
  <circle cx="669.8711653613955" cy="549.2368677719306" r="1.3927240756488537" fill="white" opacity="0.3077342844407972"/>
  <circle cx="771.5800204536266" cy="402.9741238444352" r="0.6807335751111457" fill="white" opacity="0.27865151995643483"/>
  <circle cx="593.8456365984107" cy="393.5041136023477" r="1.9069318538140005" fill="white" opacity="0.3339008376497302"/>
  <circle cx="661.763449915462" cy="738.2750191939011" r="1.760560794409125" fill="white" opacity="0.17161913342700091"/>
  <circle cx="623.8469352325351" cy="566.6791316612141" r="1.7383745845977587" fill="white" opacity="0.4080943888294756"/>
  <circle cx="172.4596147784342" cy="738.2908933817373" r="1.1429626430586872" fill="white" opacity="0.3227261095195435"/>
  <circle cx="124.11592175471498" cy="346.7399387741952" r="1.3976995612928722" fill="white" opacity="0.3233493553824164"/>
  <circle cx="692.4135961891296" cy="359.9006773091936" r="1.5429144124038032" fill="white" opacity="0.2895033708998491"/>
  <circle cx="125.19167688777087" cy="652.8224474293387" r="1.154611097170207" fill="white" opacity="0.21316027477378285"/>
  <circle cx="471.59029887547115" cy="455.36301702337283" r="0.7991600402059771" fill="white" opacity="0.141621385534179"/>
  <circle cx="210.55292293579618" cy="310.0568037315902" r="1.602862228943625" fill="white" opacity="0.4186681309699759"/>
  <circle cx="77.32929567093888" cy="782.3851738369798" r="0.5409717961055026" fill="white" opacity="0.34997708264175753"/>
  <circle cx="137.1450136889325" cy="730.2168241553949" r="1.2769982713423818" fill="white" opacity="0.2382964711072614"/>
  <circle cx="741.7916624867269" cy="532.4158897728651" r="0.5663013991314603" fill="white" opacity="0.1350760324842015"/>
  <circle cx="163.93643965671566" cy="591.3047429884105" r="1.634326449245891" fill="white" opacity="0.48577430439593416"/>
  <circle cx="712.4557333277929" cy="346.6374859062681" r="1.7129550441666548" fill="white" opacity="0.4140129761958872"/>
  <circle cx="518.1519159031316" cy="690.4680914419273" r="1.9943837268834503" fill="white" opacity="0.290245931264005"/>
  <circle cx="497.9063129507548" cy="329.39248679066935" r="1.0601333372777704" fill="white" opacity="0.26643964582631163"/>
  <circle cx="445.9403737194636" cy="613.7549520712793" r="1.6464627749416836" fill="white" opacity="0.12793398316698773"/>
  <circle cx="580.5393619647292" cy="409.1467063064815" r="1.2918958785419536" fill="white" opacity="0.4806703549651389"/>
  <circle cx="132.97132180638488" cy="573.0688506004586" r="1.7011368840984753" fill="white" opacity="0.4950972332176734"/>
  <circle cx="263.6920348791891" cy="269.3734163627166" r="1.5194271241755928" fill="white" opacity="0.21908854097084715"/>
  <circle cx="740.0027323535304" cy="243.40934050009596" r="1.3943120046979147" fill="white" opacity="0.2937798338487724"/>
  <circle cx="226.19473217687417" cy="404.1049678655398" r="0.7412972227600457" fill="white" opacity="0.4916329538182942"/>
  <circle cx="575.908414928246" cy="155.18764975654332" r="0.6993594178191912" fill="white" opacity="0.323875027319796"/>
  <circle cx="732.8412323310112" cy="106.29475406375306" r="1.3314383514722516" fill="white" opacity="0.40890318943954473"/>
  <circle cx="48.539093085655516" cy="61.3779878688601" r="0.5419036338858493" fill="white" opacity="0.28010060335617776"/>
  <circle cx="22.431988747804255" cy="50.23816991264782" r="0.8602137264892762" fill="white" opacity="0.4062423196772783"/>
  <circle cx="37.27502428615175" cy="128.27528756902203" r="0.9299256362095127" fill="white" opacity="0.43922756785234573"/>
  <circle cx="660.5163928635641" cy="774.6451598625507" r="1.8298284604381985" fill="white" opacity="0.3590477796020882"/>
  <circle cx="117.09245528237267" cy="305.11626044905256" r="1.6100168183902408" fill="white" opacity="0.3568879829215136"/>
  <circle cx="290.35113079047034" cy="452.68243862495285" r="0.7939407812161746" fill="white" opacity="0.24191694113120452"/>
  <circle cx="184.46696549417965" cy="727.0460640830528" r="1.9803496331579638" fill="white" opacity="0.4225423742898521"/>
  <circle cx="696.341030341099" cy="115.29962582902967" r="1.2988799417407393" fill="white" opacity="0.36449818722173"/>
  <circle cx="687.324426651274" cy="152.98855388839502" r="1.3882157480644042" fill="white" opacity="0.39947667583510293"/>
  <circle cx="592.8545555249901" cy="185.1598953314026" r="0.6838161826571725" fill="white" opacity="0.4160396066237768"/>
  <circle cx="411.32481936829765" cy="715.86176634168" r="0.5935902140060741" fill="white" opacity="0.18576177880832254"/>
  <circle cx="259.923974504393" cy="761.2725817897438" r="1.0772066876815538" fill="white" opacity="0.48165099124308586"/>
  <circle cx="437.4825586533925" cy="8.498238410106485" r="1.8840989583372192" fill="white" opacity="0.42807327499024617"/>
  <circle cx="252.94660823246167" cy="45.878749958906" r="1.9152523315310614" fill="white" opacity="0.3866448537131234"/>
  <circle cx="671.6321528286115" cy="243.70090230980315" r="0.6045034304911492" fill="white" opacity="0.2856346210234933"/>
  <circle cx="361.68976599311105" cy="506.92783864836645" r="1.4063885737422386" fill="white" opacity="0.32906592676666524"/>
  <circle cx="731.946647940664" cy="63.895742899797625" r="0.7310086217398557" fill="white" opacity="0.3077942713888874"/>
  <circle cx="414.9765161264069" cy="410.589934635778" r="0.6201806798370902" fill="white" opacity="0.28749622704811795"/>
  <circle cx="155.05841482075127" cy="486.9799486190793" r="1.625653102768014" fill="white" opacity="0.29145126963167334"/>
  <circle cx="475.62120138969465" cy="392.0965996092748" r="0.9111511060366536" fill="white" opacity="0.23792769370335687"/>
  <circle cx="241.76171540814275" cy="486.1859852671721" r="1.676628789416861" fill="white" opacity="0.2574056729489508"/>
  <circle cx="348.3894121115779" cy="188.77851652495386" r="1.8415632936266313" fill="white" opacity="0.32314607320394045"/>
  <circle cx="161.4502286767575" cy="700.6325115592408" r="1.4839241126045382" fill="white" opacity="0.21294498734011863"/>
  <circle cx="241.30102492009905" cy="620.7763447811228" r="1.472511443137045" fill="white" opacity="0.31087350354783205"/>
  <circle cx="386.7136332026945" cy="700.8651841614321" r="1.2298889584428903" fill="white" opacity="0.398947627007464"/>
  <circle cx="739.3768486965206" cy="544.8575964441616" r="1.1416716905667956" fill="white" opacity="0.4709514704892912"/>
  <circle cx="267.59746867822906" cy="54.432932151194265" r="1.793290483145494" fill="white" opacity="0.12611975025251643"/>
  <circle cx="594.4978185738843" cy="542.7750599487023" r="1.079300363542905" fill="white" opacity="0.3559447490870229"/>
  <circle cx="117.33788424140421" cy="685.2767337232791" r="0.5840965402015972" fill="white" opacity="0.12274340905553456"/>
  <circle cx="223.116710668209" cy="630.9459209628407" r="0.828365095798065" fill="white" opacity="0.29233782495553984"/>
  <circle cx="216.3110756006624" cy="267.94666484744766" r="1.1393838210017413" fill="white" opacity="0.10363541747398718"/>
  <circle cx="646.0595734209983" cy="122.33771525072052" r="1.852214227923969" fill="white" opacity="0.21998331791888318"/>
  <circle cx="565.3267021915791" cy="719.4829099141721" r="1.119299930111287" fill="white" opacity="0.3249090195611347"/>
  <circle cx="152.7749861177247" cy="122.47129385767207" r="1.223857478485076" fill="white" opacity="0.31694745242242567"/>
  <circle cx="541.5583000015844" cy="48.431602462782394" r="1.364345287221435" fill="white" opacity="0.14998328741738598"/>
  <circle cx="247.93734463999942" cy="617.6890212551757" r="1.8530472079888665" fill="white" opacity="0.48124312474124986"/>
  <circle cx="145.38233115002708" cy="492.8871396031916" r="1.639321287139925" fill="white" opacity="0.1258532671745546"/>
  <circle cx="392.03698021844014" cy="540.5739549598401" r="1.8691509758147218" fill="white" opacity="0.26341615575872546"/>
  <circle cx="120.28614552775636" cy="248.23522624285718" r="0.9092867091182435" fill="white" opacity="0.2979943968370662"/>
  <circle cx="758.6984431922846" cy="564.399454329629" r="1.3746064587659097" fill="white" opacity="0.1461748712367904"/>
  <circle cx="240.17646464406087" cy="253.1779290445529" r="0.6138077480954331" fill="white" opacity="0.1110388408362145"/>
  <circle cx="431.84868034121325" cy="115.2649558197841" r="0.7167129289724424" fill="white" opacity="0.2593967627946897"/>
  <circle cx="477.37682843190345" cy="508.48191844932285" r="1.016878017872168" fill="white" opacity="0.4501145412351011"/>
  <g stroke="url(#conGrad)" stroke-width="0.8" opacity="0.35" fill="none" filter="url(#conGlow)">
    <line x1="400" y1="400" x2="400" y2="120"/>
    <line x1="400" y1="400" x2="640" y2="240"/>
    <line x1="400" y1="400" x2="580" y2="640"/>
    <line x1="400" y1="400" x2="400" y2="720"/>
    <line x1="400" y1="400" x2="220" y2="640"/>
    <line x1="400" y1="400" x2="160" y2="240"/>
    <line x1="400" y1="120" x2="640" y2="240"/>
    <line x1="640" y1="240" x2="580" y2="640"/>
    <line x1="580" y1="640" x2="400" y2="720"/>
    <line x1="400" y1="720" x2="220" y2="640"/>
    <line x1="220" y1="640" x2="160" y2="240"/>
    <line x1="160" y1="240" x2="400" y2="120"/>
  </g>
  <ellipse cx="400" cy="400" rx="180" ry="100" fill="none" stroke="#22d3ee" stroke-width="0.6" opacity="0.12" transform="rotate(-15,400,400)"/>
  <ellipse cx="400" cy="400" rx="240" ry="140" fill="none" stroke="#a78bfa" stroke-width="0.4" opacity="0.08" transform="rotate(25,400,400)"/>
  <circle cx="400" cy="120" r="20" fill="#22d3ee" opacity="0.1" filter="url(#starBlur)"/><circle cx="400" cy="120" r="12" fill="#22d3ee" opacity="0.6" filter="url(#conGlow)"/><circle cx="400" cy="120" r="6" fill="white" opacity="0.8"/><text x="400" y="140" text-anchor="middle" fill="#22d3ee" font-family="monospace" font-size="9" opacity="0.7" letter-spacing="1">SYS-01</text>
  <circle cx="640" cy="240" r="18" fill="#34d399" opacity="0.1" filter="url(#starBlur)"/><circle cx="640" cy="240" r="10" fill="#34d399" opacity="0.6" filter="url(#conGlow)"/><circle cx="640" cy="240" r="5" fill="white" opacity="0.8"/><text x="640" y="260" text-anchor="middle" fill="#34d399" font-family="monospace" font-size="9" opacity="0.7" letter-spacing="1">SYS-02</text>
  <circle cx="580" cy="640" r="19" fill="#a78bfa" opacity="0.1" filter="url(#starBlur)"/><circle cx="580" cy="640" r="11" fill="#a78bfa" opacity="0.6" filter="url(#conGlow)"/><circle cx="580" cy="640" r="5.5" fill="white" opacity="0.8"/><text x="580" y="660" text-anchor="middle" fill="#a78bfa" font-family="monospace" font-size="9" opacity="0.7" letter-spacing="1">SYS-03</text>
  <circle cx="400" cy="720" r="18" fill="#f472b6" opacity="0.1" filter="url(#starBlur)"/><circle cx="400" cy="720" r="10" fill="#f472b6" opacity="0.6" filter="url(#conGlow)"/><circle cx="400" cy="720" r="5" fill="white" opacity="0.8"/><text x="400" y="740" text-anchor="middle" fill="#f472b6" font-family="monospace" font-size="9" opacity="0.7" letter-spacing="1">SYS-04</text>
  <circle cx="220" cy="640" r="17" fill="#fde68a" opacity="0.1" filter="url(#starBlur)"/><circle cx="220" cy="640" r="9" fill="#fde68a" opacity="0.6" filter="url(#conGlow)"/><circle cx="220" cy="640" r="4.5" fill="white" opacity="0.8"/><text x="220" y="660" text-anchor="middle" fill="#fde68a" font-family="monospace" font-size="9" opacity="0.7" letter-spacing="1">SYS-05</text>
  <circle cx="160" cy="240" r="18" fill="#60a5fa" opacity="0.1" filter="url(#starBlur)"/><circle cx="160" cy="240" r="10" fill="#60a5fa" opacity="0.6" filter="url(#conGlow)"/><circle cx="160" cy="240" r="5" fill="white" opacity="0.8"/><text x="160" y="260" text-anchor="middle" fill="#60a5fa" font-family="monospace" font-size="9" opacity="0.7" letter-spacing="1">SYS-06</text>
  <circle cx="400" cy="400" r="40" fill="#22d3ee" opacity="0.08" filter="url(#starBlur)"/>
  <circle cx="400" cy="400" r="28" fill="none" stroke="#fde68a" stroke-width="1.5" opacity="0.5"/>
  <circle cx="400" cy="400" r="20" fill="none" stroke="#22d3ee" stroke-width="2" opacity="0.6" filter="url(#conGlow)"/>
  <circle cx="400" cy="400" r="8" fill="#22d3ee" opacity="0.7"/>
  <text x="400" y="404" text-anchor="middle" fill="#fde68a" font-family="monospace" font-size="8" opacity="0.8" letter-spacing="2">LC</text>
</svg>