<svg xmlns="http://www.w3.org/2000/svg" viewBox="0 0 800 800" width="800" height="800">
  <defs>
    <linearGradient id="mcGrad1" x1="0" y1="0" x2="1" y2="1">
      <stop offset="0%" stop-color="#22d3ee" stop-opacity="0.8"/>
      <stop offset="50%" stop-color="#a78bfa" stop-opacity="0.6"/>
      <stop offset="100%" stop-color="#f472b6" stop-opacity="0.8"/>
    </linearGradient>
    <linearGradient id="mcGrad2" x1="1" y1="0" x2="0" y2="1">
      <stop offset="0%" stop-color="#fde68a" stop-opacity="0.5"/>
      <stop offset="50%" stop-color="#34d399" stop-opacity="0.3"/>
      <stop offset="100%" stop-color="#22d3ee" stop-opacity="0.7"/>
    </linearGradient>
    <radialGradient id="mcGlow" cx="50%" cy="50%" r="50%">
      <stop offset="0%" stop-color="#22d3ee" stop-opacity="0.15"/>
      <stop offset="60%" stop-color="#a78bfa" stop-opacity="0.05"/>
      <stop offset="100%" stop-color="transparent"/>
    </radialGradient>
    <filter id="mcFilter"><feGaussianBlur stdDeviation="3" result="blur"/><feMerge><feMergeNode in="blur"/><feMergeNode in="SourceGraphic"/></feMerge></filter>
  </defs>
  <rect width="800" height="800" fill="transparent"/>
  <circle cx="400" cy="400" r="380" fill="url(#mcGlow)"/>
  <circle cx="400" cy="400" r="350" fill="none" stroke="url(#mcGrad1)" stroke-width="2" opacity="0.6" stroke-dasharray="18 6" filter="url(#mcFilter)"/>
  <circle cx="400" cy="400" r="330" fill="none" stroke="url(#mcGrad2)" stroke-width="1.5" opacity="0.4" stroke-dasharray="4 8"/>
  <circle cx="400" cy="400" r="290" fill="none" stroke="url(#mcGrad1)" stroke-width="1" opacity="0.3"/>
  <circle cx="400" cy="400" r="260" fill="none" stroke="url(#mcGrad2)" stroke-width="1.5" opacity="0.5" stroke-dasharray="2 12"/>
  <circle cx="400" cy="400" r="220" fill="none" stroke="#a78bfa" stroke-width="0.8" opacity="0.3"/>
  <circle cx="400" cy="400" r="180" fill="none" stroke="url(#mcGrad1)" stroke-width="2" opacity="0.5" stroke-dasharray="28 6"/>
  <circle cx="400" cy="400" r="150" fill="none" stroke="url(#mcGrad2)" stroke-width="1" opacity="0.35"/>
  <g font-family="serif" font-size="16" fill="#22d3ee" opacity="0.5" text-anchor="middle" dominant-baseline="central">
    <text x="400" y="60" transform="rotate(0,400,60)">ᚠ</text>
    <text x="570" y="105.55136271329081" transform="rotate(30,570,105.55136271329081)">ᚱ</text>
    <text x="694.4486372867091" y="229.99999999999997" transform="rotate(60,694.4486372867091,229.99999999999997)">ᚨ</text>
    <text x="740" y="400" transform="rotate(90,740,400)">ᚾ</text>
    <text x="694.4486372867092" y="569.9999999999999" transform="rotate(120,694.4486372867092,569.9999999999999)">ᚲ</text>
    <text x="570" y="694.4486372867092" transform="rotate(150,570,694.4486372867092)">ᚷ</text>
    <text x="400.00000000000006" y="740" transform="rotate(180,400.00000000000006,740)">ᚹ</text>
    <text x="229.99999999999997" y="694.4486372867091" transform="rotate(210,229.99999999999997,694.4486372867091)">ᚺ</text>
    <text x="105.55136271329093" y="570.0000000000001" transform="rotate(240,105.55136271329093,570.0000000000001)">ᚾ</text>
    <text x="60" y="400.00000000000006" transform="rotate(270,60,400.00000000000006)">ᛁ</text>
    <text x="105.55136271329087" y="229.99999999999997" transform="rotate(300,105.55136271329087,229.99999999999997)">ᛃ</text>
    <text x="229.99999999999986" y="105.55136271329093" transform="rotate(330,229.99999999999986,105.55136271329093)">ᛈ</text>
  </g>
  <line x1="400" y1="160" x2="400" y2="280" stroke="url(#mcGrad1)" stroke-width="1.5" opacity="0.6" filter="url(#mcFilter)"/>
  <line x1="628.2535639108369" y1="325.8359213500126" x2="514.1267819554184" y2="362.9179606750063" stroke="url(#mcGrad1)" stroke-width="1.5" opacity="0.6" filter="url(#mcFilter)"/>
  <line x1="541.0684605501935" y1="594.1640786499873" x2="470.5342302750968" y2="497.0820393249937" stroke="url(#mcGrad1)" stroke-width="1.5" opacity="0.6" filter="url(#mcFilter)"/>
  <line x1="258.93153944980645" y1="594.1640786499875" x2="329.4657697249032" y2="497.08203932499373" stroke="url(#mcGrad1)" stroke-width="1.5" opacity="0.6" filter="url(#mcFilter)"/>
  <line x1="171.74643608916313" y1="325.83592135001265" x2="285.87321804458156" y2="362.9179606750063" stroke="url(#mcGrad1)" stroke-width="1.5" opacity="0.6" filter="url(#mcFilter)"/>
  <line x1="400" y1="240" x2="443.1482984743783" y2="321.01756942986646" stroke="#f472b6" stroke-width="1.2" opacity="0.5"/>
  <line x1="552.1690426072246" y1="350.55728090000844" x2="488.45031277350057" y2="416.62955712789505" stroke="#f472b6" stroke-width="1.2" opacity="0.5"/>
  <line x1="494.04564036679574" y1="529.4427190999916" x2="411.51700113520405" y2="489.2600620930308" stroke="#f472b6" stroke-width="1.2" opacity="0.5"/>
  <line x1="305.9543596332043" y1="529.4427190999916" x2="318.6675853765267" y2="438.53619508352403" stroke="#f472b6" stroke-width="1.2" opacity="0.5"/>
  <line x1="247.83095739277542" y1="350.55728090000844" x2="338.21680224039045" y2="334.5566162656837" stroke="#f472b6" stroke-width="1.2" opacity="0.5"/>
  <circle cx="400" cy="50" r="6" fill="#22d3ee" opacity="0.8" filter="url(#mcFilter)"/>
  <circle cx="703.1088913245535" cy="224.99999999999997" r="6" fill="#34d399" opacity="0.8" filter="url(#mcFilter)"/>
  <circle cx="703.1088913245535" cy="574.9999999999999" r="6" fill="#a78bfa" opacity="0.8" filter="url(#mcFilter)"/>
  <circle cx="400.00000000000006" cy="750" r="6" fill="#f472b6" opacity="0.8" filter="url(#mcFilter)"/>
  <circle cx="96.8911086754465" cy="575.0000000000001" r="6" fill="#fde68a" opacity="0.8" filter="url(#mcFilter)"/>
  <circle cx="96.8911086754465" cy="224.99999999999997" r="6" fill="#60a5fa" opacity="0.8" filter="url(#mcFilter)"/>
  <circle cx="400" cy="400" r="60" fill="none" stroke="#fde68a" stroke-width="1.5" opacity="0.6"/>
  <circle cx="400" cy="400" r="35" fill="none" stroke="#22d3ee" stroke-width="2" opacity="0.7"/>
  <circle cx="400" cy="400" r="15" fill="rgba(34,211,238,0.3)" filter="url(#mcFilter)"/>
  <text x="400" y="400" text-anchor="middle" dominant-baseline="central" font-family="monospace" font-size="10" fill="#fde68a" opacity="0.7">LC</text>
</svg>