<svg xmlns="http://www.w3.org/2000/svg" viewBox="0 0 1440 900" role="img" aria-labelledby="title desc">
  <title id="title">Luomo Cloud floating cyber city</title>
  <desc id="desc">Original anime cyber cloud city with moon gate, sakura petals, stars, and neon infrastructure lines.</desc>
  <defs>
    <radialGradient id="sky" cx="52%" cy="18%" r="82%">
      <stop offset="0" stop-color="#174567"/>
      <stop offset=".42" stop-color="#071827"/>
      <stop offset="1" stop-color="#020617"/>
    </radialGradient>
    <linearGradient id="neon" x1="172" x2="1278" y1="156" y2="782" gradientUnits="userSpaceOnUse">
      <stop stop-color="#22d3ee"/>
      <stop offset=".45" stop-color="#a78bfa"/>
      <stop offset=".78" stop-color="#f472b6"/>
      <stop offset="1" stop-color="#fde68a"/>
    </linearGradient>
    <filter id="softGlow" x="-20%" y="-20%" width="140%" height="140%">
      <feGaussianBlur stdDeviation="10" result="blur"/>
      <feMerge>
        <feMergeNode in="blur"/>
        <feMergeNode in="SourceGraphic"/>
      </feMerge>
    </filter>
  </defs>
  <rect width="1440" height="900" rx="46" fill="url(#sky)"/>
  <g opacity=".22" fill="#eaf6ff">
    <circle cx="186" cy="162" r="2"/><circle cx="286" cy="338" r="1.8"/><circle cx="414" cy="122" r="1.4"/>
    <circle cx="586" cy="236" r="2"/><circle cx="788" cy="138" r="1.6"/><circle cx="1074" cy="192" r="2.2"/>
    <circle cx="1216" cy="344" r="1.5"/><circle cx="1306" cy="112" r="2"/>
  </g>
  <g opacity=".54" fill="none" stroke="url(#neon)" stroke-width="2">
    <circle cx="720" cy="356" r="262"/>
    <circle cx="720" cy="356" r="194" stroke-dasharray="12 18"/>
    <path d="M418 360c130-158 442-170 604-8"/>
    <path d="M466 474c160 112 370 118 510 2"/>
  </g>
  <g filter="url(#softGlow)">
    <path d="M305 610c46-107 160-134 242-83 38-105 182-149 284-74 70-72 213-32 248 68 88-11 169 34 199 110 41 105-31 198-162 198H390c-127 0-178-111-85-219z" fill="#eaf6ff" opacity=".9"/>
    <path d="M338 634c52-72 149-93 222-41 67-100 202-116 304-31 65-55 172-28 205 50 76-6 137 28 161 83 22 50 8 93-31 121H350c-83-31-91-112-12-182z" fill="#a5f3fc" opacity=".36"/>
    <g stroke="url(#neon)" stroke-width="5" fill="#071827">
      <path d="M492 575h98v178h-98z"/>
      <path d="M624 498h132v255H624z"/>
      <path d="M792 540h112v213H792z"/>
      <path d="M936 606h78v147h-78z"/>
      <path d="M438 638h54v115h-54z"/>
    </g>
    <g fill="#22d3ee" opacity=".72">
      <rect x="520" y="610" width="14" height="34" rx="4"/><rect x="552" y="610" width="14" height="34" rx="4"/>
      <rect x="665" y="548" width="16" height="38" rx="4"/><rect x="710" y="548" width="16" height="38" rx="4"/>
      <rect x="833" y="592" width="16" height="42" rx="4"/><rect x="968" y="642" width="14" height="34" rx="4"/>
    </g>
    <path d="M418 764h612" stroke="#fde68a" stroke-width="6" stroke-linecap="round" opacity=".65"/>
    <path d="M538 788h372" stroke="#f472b6" stroke-width="5" stroke-linecap="round" opacity=".5"/>
  </g>
  <g opacity=".48">
    <path d="M236 240c40 18 92 18 132-2" stroke="#f472b6" stroke-width="5" fill="none" stroke-linecap="round"/>
    <path d="M220 258c57 34 123 35 169 0" stroke="#22d3ee" stroke-width="4" fill="none" stroke-linecap="round"/>
    <path d="M1110 250c48 20 104 20 152 0" stroke="#f472b6" stroke-width="5" fill="none" stroke-linecap="round"/>
    <path d="M1090 272c64 38 142 38 192 0" stroke="#22d3ee" stroke-width="4" fill="none" stroke-linecap="round"/>
  </g>
  <g fill="#f9a8d4" opacity=".65">
    <path d="M262 512c14 4 20 16 13 30-14-4-21-18-13-30z"/>
    <path d="M1170 500c14 4 20 16 13 30-14-4-21-18-13-30z"/>
    <path d="M1080 684c13 5 18 18 9 31-13-5-18-18-9-31z"/>
  </g>
</svg>
