<svg xmlns="http://www.w3.org/2000/svg" viewBox="0 0 800 200" width="800" height="200">
  <defs>
    <linearGradient id="waveGrad" x1="0" y1="0" x2="1" y2="0">
      <stop offset="0%" stop-color="#22d3ee" stop-opacity="0.8"/>
      <stop offset="40%" stop-color="#a78bfa" stop-opacity="0.6"/>
      <stop offset="70%" stop-color="#f472b6" stop-opacity="0.7"/>
      <stop offset="100%" stop-color="#fde68a" stop-opacity="0.5"/>
    </linearGradient>
    <filter id="waveBlur"><feGaussianBlur stdDeviation="2"/></filter>
  </defs>
  <rect width="800" height="200" fill="transparent"/>
  <path d="M 20 98.07984015229633 L 30 146.83532811620032 L 40 65.29441787850928 L 50 177.53967423005253 L 60 62.35434579603341 L 70 171.35316936967095 L 80 93.60640511105468 L 90 134.2882161056065 L 100 111.32927317657756 L 110 163.7439979045053 L 120 74.62242048073746 L 130 185.93027222907207 L 140 67.67669599850018 L 150 170.00726612576437 L 160 93.7448810309192 L 170 124.17040565157494 L 180 97.68393389653986 L 190 152.6652569298699 L 200 55.92934894336044 L 210 166.16990581866295 L 220 46.086571537398065 L 230 142.80581340270513 L 240 70.23720861370084 L 250 92.75605651694308 L 260 65.73934686747829 L 270 126.39978651529424 L 280 26.003330496208534 L 290 138.6719158420122 L 300 21.205156891720897 L 310 116.09989473038685 L 320 51.581703557075876 L 330 74.1661465857953 L 340 46.51079784237065 L 350 116.21631310516769 L 360 15.737582572879486 L 370 133.28068588776327 L 380 21.197446796470246 L 390 115.79690013356169 L 400 60.850748709710516 L 410 87.12146177973443 L 420 56.08342309416598 L 430 134.1409166940328 L 440 32.88999074018949 L 450 153.32234555936049 L 460 44.90615444769144 L 470 136.32326665664795 L 480 88.16511124614573 L 490 114.72150336051328 L 500 76.83073904317472 L 510 159.21343135830088 L 520 53.674332260840124 L 530 172.70902296301065 L 540 64.52430459725527 L 550 148.79662945477887 L 560 104.17462649204866 L 570 127.81894074140813 L 580 80.47340944837119 L 590 164.60324880287644 L 600 53.32119336187216 L 610 169.25698507929505 L 620 60.92201593759231 L 630 137.56873336421216 L 640 96.99886889118851 L 650 118.55874427269242 L 660 63.34753513769728 L 670 150.84764762921165 L 680 36.546787950132845 L 690 151.70983774139353 L 700 46.62640035679031 L 710 118.65604994933749 L 720 85.70581685060742 L 730 108.61410491962994 L 740 49.225562985509406 L 750 143.20794633068047 L 760 29.517739699556735 L 770 146.50704733429532 L 780 47.70607125784059 L 790 117.16242317506772 L 800 93.79545316095735 L 810 119.34220513234915" fill="none" stroke="url(#waveGrad)" stroke-width="2.5" opacity="0.7" filter="url(#waveBlur)"/>
  <path d="M 40 152.28156343868903 L 52 153.65490390274644 L 64 140.8344421320893 L 76 118.02483454603986 L 88 92.74978290841341 L 100 73.24150369147856 L 112 65.58878196371647 L 124 71.63892764126413 L 136 88.38538723752363 L 148 109.0536231201388 L 160 125.50451200575898 L 172 131.114217056154 L 184 123.12305059041256 L 196 103.63140810913606 L 208 78.89359364105094 L 220 57.15512504725162 L 232 45.788129160419054 L 244 48.724886084721035 L 256 65.08570703497034 L 268 89.48040621012922 L 280 113.87828627533473 L 292 130.3939144576537 L 304 134.01631801229485 L 316 124.32922570225891 L 328 105.62263084356954 L 340 85.35805332600975 L 352 71.52506872624548 L 364 69.81401792031419 L 376 81.59399830678672 L 388 103.40384628465482 L 400 128.1351514525513 L 412 147.4950809556324 L 424 154.88948978707964 L 436 147.71971442082017 L 448 128.29098202144513 L 460 103.01507699087922 L 472 80.18547947621411 L 484 67.1015875887899 L 496 67.54576315846887 L 508 80.49346769281473 L 520 100.50582239388979 L 532 119.66607797004392 L 544 130.38207396795758 L 556 128.07423642637994 L 568 112.80869020573093 L 580 89.30366389510431 L 592 65.3057736381147 L 604 48.90242004106449 L 616 45.708417199373606 L 628 56.909175205164864 L 640 78.8438254520177 L 652 104.27402576557037 L 664 124.89561555090276 L 676 134.21640154271327 L 688 129.79570158422766 L 700 114.06444022808725 L 712 93.44060903913002 L 724 76.05049596942172 L 736 68.85319030879499 L 748 75.17432142178812" fill="none" stroke="#22d3ee" stroke-width="1" opacity="0.25"/>
  <path d="M 50 104.23360024179601 L 64 89.4765031693114 L 78 77.29592514076215 L 92 70.67409647004709 L 106 71.23227176010585 L 120 78.83379023288825 L 134 91.61753505403223 L 148 106.45359964263446 L 162 119.70959796156367 L 176 128.13999930324218 L 190 129.68074739870144 L 204 123.9546133787047 L 218 112.3635545572527 L 232 97.74546638614572 L 246 83.67936667331891 L 260 73.6091272008499 L 274 70.0002938034789 L 288 73.73643475934715 L 302 83.90281245998695 L 316 98.01034307946398 L 330 112.60501110479923 L 344 124.11353279654863 L 358 129.7182206708461 L 372 128.0468516657405 L 386 119.5086352047135 L 400 106.1940244581339 L 414 91.36290050004804 L 428 78.64643972892631 L 442 71.1580752436133 L 456 70.73121983595527 L 470 77.47038259684972 L 484 89.72558144591163 L 498 104.49631628988857 L 512 118.16619609158803 L 526 127.38835752182882 L 540 129.90489382836398 L 554 125.09966915608169 L 568 114.14917009282588 L 582 99.73446072128789 L 596 85.38476462618472 L 610 74.61338787474489 L 624 70.05753916061812 L 638 72.83264913980129 L 652 82.25927410404627 L 666 96.02944749706681 L 680 110.77175062066505 L 694 122.87675351438808 L 708 129.3807292931175 L 722 128.6912778521351 L 736 120.97720094965294" fill="none" stroke="#f472b6" stroke-width="0.8" opacity="0.2"/>
  <circle cx="25" cy="112.91350650167898" r="2" fill="#22d3ee" opacity="0.6" filter="url(#waveBlur)"/>
  <circle cx="105" cy="83.38982836825593" r="2.989358246623382" fill="#22d3ee" opacity="0.6" filter="url(#waveBlur)"/>
  <circle cx="185" cy="120.25018862836961" r="1.7120966833349347" fill="#22d3ee" opacity="0.6" filter="url(#waveBlur)"/>
  <circle cx="265" cy="76.17885659862466" r="1.0944216379933762" fill="#22d3ee" opacity="0.6" filter="url(#waveBlur)"/>
  <circle cx="345" cy="127.31085739373165" r="2.551426681241691" fill="#22d3ee" opacity="0.6" filter="url(#waveBlur)"/>
  <circle cx="425" cy="69.2925708840997" r="2.745113160479349" fill="#22d3ee" opacity="0.6" filter="url(#waveBlur)"/>
  <circle cx="505" cy="133.99927473525045" r="1.2317453386763333" fill="#22d3ee" opacity="0.6" filter="url(#waveBlur)"/>
  <circle cx="585" cy="62.82483241787835" r="1.4784489979130881" fill="#22d3ee" opacity="0.6" filter="url(#waveBlur)"/>
  <circle cx="665" cy="140.22427643780256" r="2.9200260381967906" fill="#22d3ee" opacity="0.6" filter="url(#waveBlur)"/>
  <circle cx="745" cy="56.86379752615711" r="2.253823362762036" fill="#22d3ee" opacity="0.6" filter="url(#waveBlur)"/>
</svg>