<svg xmlns="http://www.w3.org/2000/svg" viewBox="0 0 800 800" width="800" height="800">
  <defs><radialGradient id="sgCenter" cx="50%" cy="35%" r="60%"><stop offset="0%" stop-color="#22d3ee" stop-opacity="0.04"/><stop offset="50%" stop-color="#a78bfa" stop-opacity="0.02"/><stop offset="100%" stop-color="transparent"/></radialGradient></defs>
  <rect width="800" height="800" fill="transparent"/><rect width="800" height="800" fill="url(#sgCenter)"/>
  <circle cx="8.485100632604325" cy="334.8314797517162" r="1.6010436764798823" fill="#22d3ee" opacity="0.48262586248847206"/>
  <circle cx="31.538060703575788" cy="643.9933814587732" r="2.1858105843882507" fill="#22d3ee" opacity="0.10495739162780714"/>
  <circle cx="644.3220694370161" cy="363.0047525291166" r="0.9842940643229714" fill="#22d3ee" opacity="0.19580600423391836"/>
  <circle cx="687.9623148677492" cy="642.1713985763636" r="1.5277272638337622" fill="white" opacity="0.13954495727313143"/>
  <circle cx="472.6383718013346" cy="476.1114184183302" r="1.6417936359204306" fill="#22d3ee" opacity="0.12458093052682705"/>
  <circle cx="45.58233994067491" cy="707.9048137221828" r="0.658051721907821" fill="white" opacity="0.34533350888074826"/>
  <circle cx="345.8944252577039" cy="157.28910980258135" r="1.9885903894171517" fill="#a78bfa" opacity="0.5582221310538387"/>
  <circle cx="99.47188953990009" cy="311.4693197056102" r="0.6089371308288125" fill="#a78bfa" opacity="0.17032580807137193"/>
  <circle cx="129.9082472063609" cy="195.46186668015872" r="1.817477643246916" fill="white" opacity="0.14051478470311207"/>
  <circle cx="214.91436413474733" cy="188.89364238714333" r="1.5849428050304597" fill="#a78bfa" opacity="0.08639338134610751"/>
  <circle cx="369.35003964006955" cy="185.6058411536182" r="1.0701603942391322" fill="#fde68a" opacity="0.22003699466253468"/>
  <circle cx="661.5863274788712" cy="788.4338767427938" r="1.8837732364437838" fill="#fde68a" opacity="0.435201295738756"/>
  <circle cx="663.7757993392773" cy="714.1739387958477" r="0.7805812536232122" fill="#fde68a" opacity="0.30603914252246234"/>
  <circle cx="451.9941538435259" cy="565.703614845156" r="2.4534551796384605" fill="#a78bfa" opacity="0.4547397512922186"/>
  <circle cx="143.63614011663915" cy="456.3400269200809" r="2.341967184285854" fill="#a78bfa" opacity="0.12949262589001076"/>
  <circle cx="23.252065901903407" cy="467.3561616481144" r="1.5943188955423486" fill="white" opacity="0.11810487017529374"/>
  <circle cx="78.23316683438257" cy="66.3675426366713" r="1.922917300915873" fill="white" opacity="0.34111490073637024"/>
  <circle cx="12.730659954722778" cy="337.1226229754619" r="1.3612589852945616" fill="#a78bfa" opacity="0.24148458409073187"/>
  <circle cx="772.5493574293554" cy="668.7040747686019" r="1.221333621650885" fill="#a78bfa" opacity="0.29260831353759725"/>
  <circle cx="294.14506999966477" cy="398.01538296314686" r="2.461180200304656" fill="#22d3ee" opacity="0.2249197419218768"/>
  <circle cx="84.57500340691455" cy="521.294495444185" r="1.2107064493179753" fill="#22d3ee" opacity="0.3948532328059577"/>
  <circle cx="157.54717342106267" cy="454.2997368586353" r="0.7932428182205782" fill="white" opacity="0.20424767592552318"/>
  <circle cx="796.4352383850285" cy="219.98324660231754" r="1.4063653468525297" fill="white" opacity="0.29567637336221403"/>
  <circle cx="350.3016583726291" cy="355.0809323171162" r="1.565675863823759" fill="#22d3ee" opacity="0.47312929172492274"/>
  <circle cx="475.91811238946076" cy="211.0183784818254" r="1.8796068237681878" fill="white" opacity="0.13882987436746264"/>
  <circle cx="597.7360299781756" cy="552.7979916850924" r="1.5102530856829879" fill="#a78bfa" opacity="0.27394966389485015"/>
  <circle cx="586.018120390782" cy="774.8583969657283" r="1.1803913371615355" fill="#22d3ee" opacity="0.45552273022860656"/>
  <circle cx="652.3069808596897" cy="188.0934882107403" r="1.7207411386085891" fill="#22d3ee" opacity="0.16195572000604558"/>
  <circle cx="133.97592594162893" cy="404.15234658503294" r="0.8849276553900878" fill="#a78bfa" opacity="0.17797242888676157"/>
  <circle cx="308.6980620278531" cy="777.2394807407613" r="0.5320965334687879" fill="#fde68a" opacity="0.21499722807700156"/>
  <circle cx="311.839842968443" cy="685.6418601010106" r="0.9921165763657467" fill="white" opacity="0.34795384990714456"/>
  <circle cx="712.218118885894" cy="362.0923135538354" r="1.0173458625153142" fill="#fde68a" opacity="0.4713750879819114"/>
  <circle cx="542.7460277771155" cy="26.484683316016344" r="0.5188328397823425" fill="#22d3ee" opacity="0.14607112058435734"/>
  <circle cx="371.1117754556107" cy="614.062745713854" r="1.696828167363668" fill="#fde68a" opacity="0.4111387880520263"/>
  <circle cx="492.0619954746093" cy="424.2042255593742" r="0.6966822183734374" fill="white" opacity="0.08531083346707928"/>
  <circle cx="573.6380274214682" cy="226.68590457500449" r="1.6288009727378194" fill="white" opacity="0.3852161944029157"/>
  <circle cx="735.0993627396283" cy="621.6832822398491" r="1.7925087294857796" fill="white" opacity="0.44819315984447244"/>
  <circle cx="643.0412547917795" cy="682.7747029179538" r="0.8074176766691938" fill="#22d3ee" opacity="0.5795176583878537"/>
  <circle cx="325.78686832792584" cy="38.785229590851245" r="1.4777190918572494" fill="white" opacity="0.2333153800206439"/>
  <circle cx="554.1257811209815" cy="95.23533632666314" r="1.6448352910882675" fill="#a78bfa" opacity="0.2443458832134784"/>
  <circle cx="314.11395955358455" cy="175.77238403945162" r="2.4134928363711516" fill="#22d3ee" opacity="0.23748988127189646"/>
  <circle cx="680.4094243178478" cy="460.2827170219418" r="1.0061686134266756" fill="white" opacity="0.5600814153597948"/>
  <circle cx="506.12864321914975" cy="481.7210011614089" r="0.7905960370654639" fill="#a78bfa" opacity="0.08322798985192413"/>
  <circle cx="250.53471168662017" cy="347.2818608128834" r="1.007645487727141" fill="#22d3ee" opacity="0.40569345880186913"/>
  <circle cx="591.13202085755" cy="11.41100835232045" r="2.048992507896393" fill="#22d3ee" opacity="0.17455412289894856"/>
  <circle cx="599.6512322287327" cy="591.6360090844911" r="2.3718569103248086" fill="#22d3ee" opacity="0.3877684717646151"/>
  <circle cx="206.96778795099132" cy="265.2067703963185" r="1.5848506951991839" fill="white" opacity="0.12027047896586167"/>
  <circle cx="71.77144067351718" cy="358.70413207573455" r="1.2958765047440697" fill="white" opacity="0.2008746702779618"/>
  <circle cx="701.0338747086305" cy="663.5367430331482" r="1.940328967164402" fill="#22d3ee" opacity="0.32506114221666754"/>
  <circle cx="134.32494623191644" cy="343.6017254144678" r="0.8979188109774339" fill="#a78bfa" opacity="0.13894730399469357"/>
  <circle cx="475.56047890508853" cy="36.381678899655334" r="1.8411839531114922" fill="#a78bfa" opacity="0.14788730685966017"/>
  <circle cx="631.2596691510189" cy="36.966313082446774" r="2.4491341641763653" fill="#fde68a" opacity="0.23413602425974955"/>
  <circle cx="56.811590503837635" cy="719.0586786215861" r="1.7006143160198361" fill="#a78bfa" opacity="0.5633785196045845"/>
  <circle cx="672.0747575043068" cy="158.82349712772293" r="0.7758435667935037" fill="#22d3ee" opacity="0.34174377126738065"/>
  <circle cx="286.39456682954744" cy="331.63220574073955" r="2.3676972078777316" fill="#22d3ee" opacity="0.15617220662707282"/>
  <circle cx="593.4824715034705" cy="695.1071040784851" r="0.7468944751861386" fill="#22d3ee" opacity="0.21652307647729396"/>
  <circle cx="19.25794973070003" cy="63.96087099608092" r="0.6270899792226312" fill="white" opacity="0.11790128492847395"/>
  <circle cx="563.012951357785" cy="470.3316874045903" r="1.8572260281728648" fill="white" opacity="0.19663278876348506"/>
  <circle cx="665.8566362228779" cy="453.5356042970683" r="2.348468937597663" fill="#a78bfa" opacity="0.4066662292974638"/>
  <circle cx="162.1684301471743" cy="318.1384985941804" r="1.2576499495906854" fill="#a78bfa" opacity="0.5168557398564442"/>
  <circle cx="462.6421865796999" cy="418.83447678831953" r="0.6941270929107681" fill="#fde68a" opacity="0.265019713083316"/>
  <circle cx="720.6441218219151" cy="449.7085779115066" r="0.5246451891313872" fill="#fde68a" opacity="0.45230994926443996"/>
  <circle cx="8.414310785071866" cy="463.55697232200026" r="0.7323731289724114" fill="#fde68a" opacity="0.12152344906948491"/>
  <circle cx="240.19809314945144" cy="755.1757485494544" r="1.8303630568114055" fill="#fde68a" opacity="0.4009999185155985"/>
  <circle cx="651.7129431683238" cy="276.6610310855125" r="0.5252066955362744" fill="white" opacity="0.3167605232357872"/>
  <circle cx="82.45147804806949" cy="113.00900259995545" r="1.968675976351086" fill="white" opacity="0.3625523751409356"/>
  <circle cx="324.4916821028833" cy="98.48660564831447" r="1.5856492394993869" fill="#fde68a" opacity="0.5025557851703296"/>
  <circle cx="5.889429568341864" cy="275.01292293044787" r="0.5035220026629348" fill="#fde68a" opacity="0.5138553582157295"/>
  <circle cx="673.0013704223888" cy="212.55229021519276" r="2.298262228684287" fill="white" opacity="0.5423582393006542"/>
  <circle cx="301.6201535193602" cy="493.28737925514565" r="1.3778685452530601" fill="#fde68a" opacity="0.13093291429896048"/>
  <circle cx="530.5923792123567" cy="325.56971161277346" r="0.8471902571922727" fill="#a78bfa" opacity="0.15184336382328883"/>
  <circle cx="261.2818590870366" cy="197.3840983542562" r="1.7304830413404575" fill="#22d3ee" opacity="0.4992801170926972"/>
  <circle cx="622.9147240807541" cy="702.3591940284268" r="2.4142219597170707" fill="#a78bfa" opacity="0.43474710858746457"/>
  <circle cx="451.8708915094047" cy="41.73690393098539" r="1.5491152066222746" fill="#fde68a" opacity="0.27899028831370354"/>
  <circle cx="745.8092109864276" cy="220.7866482148167" r="0.7363614349711178" fill="#22d3ee" opacity="0.1177284568595554"/>
  <circle cx="199.28391941852556" cy="184.0213859328978" r="1.0277469816334495" fill="#a78bfa" opacity="0.5501036345692183"/>
  <circle cx="215.76530884856328" cy="524.6676513438553" r="1.6060126866145175" fill="white" opacity="0.5493666923081741"/>
  <circle cx="542.7718406392755" cy="140.50945678270895" r="1.5008373272226943" fill="#22d3ee" opacity="0.5421707820772471"/>
  <circle cx="412.7357535883942" cy="348.246863395073" r="1.0066396405266989" fill="#a78bfa" opacity="0.48617926184933574"/>
  <circle cx="726.0846724586194" cy="587.6165016204683" r="0.5913291870450437" fill="white" opacity="0.40080762002154924"/>
  <circle cx="126.77847125685756" cy="183.6230956301124" r="1.772389337938763" fill="white" opacity="0.3432089984563894"/>
  <circle cx="114.53158784686065" cy="478.67967906654627" r="2.458588189650177" fill="white" opacity="0.15399009497185484"/>
  <circle cx="76.38360742128825" cy="609.6570963103372" r="1.2434963027946704" fill="#a78bfa" opacity="0.3635267411316639"/>
  <circle cx="230.32145133889586" cy="460.76264912190084" r="2.3942707948619955" fill="#fde68a" opacity="0.2454721124325726"/>
  <circle cx="425.8072992688727" cy="685.0848226817598" r="2.168089038677362" fill="#22d3ee" opacity="0.4840353587950577"/>
  <circle cx="161.16195707918354" cy="203.4843192709224" r="1.7094073074510843" fill="#22d3ee" opacity="0.3689225131822251"/>
  <circle cx="772.2100276102677" cy="60.06788902180027" r="2.2417049955836674" fill="#a78bfa" opacity="0.46196305570519386"/>
  <circle cx="342.4347892124084" cy="109.95898737371243" r="2.3682931974746144" fill="#a78bfa" opacity="0.13462732280505596"/>
  <circle cx="524.8059437584162" cy="310.56135870962294" r="1.2106968447671211" fill="white" opacity="0.42573912172778333"/>
  <circle cx="366.976333901545" cy="486.8861554769909" r="1.703266014024573" fill="white" opacity="0.4125660303866071"/>
  <circle cx="176.4841564821064" cy="578.9909524744189" r="0.8335043597594549" fill="#fde68a" opacity="0.28896057105811696"/>
  <circle cx="56.61598237422103" cy="260.05584442591675" r="2.393241811076713" fill="#22d3ee" opacity="0.5211906851398408"/>
  <circle cx="213.29926175162763" cy="769.9355437471868" r="2.297764141334889" fill="#fde68a" opacity="0.08357706009931569"/>
  <circle cx="396.84481798416283" cy="171.78242572267752" r="1.3438659049789672" fill="white" opacity="0.252843822246354"/>
  <circle cx="512.794296360249" cy="59.3073780137975" r="2.2885084916485687" fill="#fde68a" opacity="0.392907674722777"/>
  <circle cx="118.77759972951037" cy="72.7689331373182" r="2.3530487683449754" fill="white" opacity="0.22091722603919162"/>
  <circle cx="65.62458754480059" cy="554.9600658709786" r="0.7390195689577106" fill="#a78bfa" opacity="0.40178098108610716"/>
  <circle cx="656.198481235991" cy="497.91077764147576" r="0.7316516219070133" fill="#a78bfa" opacity="0.31101716809427793"/>
  <circle cx="584.8180097603711" cy="169.6692448698749" r="1.0363971682087407" fill="#fde68a" opacity="0.16469674442498677"/>
  <circle cx="553.8481142163226" cy="737.1837085116117" r="1.22718930969696" fill="white" opacity="0.21641179541558203"/>
  <circle cx="174.3290196241406" cy="440.1023860261953" r="0.9913030918669372" fill="#a78bfa" opacity="0.3052834423996708"/>
  <circle cx="732.0051363453358" cy="126.88624337213383" r="1.7401986979891269" fill="white" opacity="0.24107659210338783"/>
  <circle cx="743.9445225717083" cy="619.3851926409029" r="0.8512780711075398" fill="#fde68a" opacity="0.23217689336009883"/>
  <circle cx="699.5479043982966" cy="493.41860407187613" r="1.6659323787436098" fill="#fde68a" opacity="0.5072105481788208"/>
  <circle cx="239.24593827291946" cy="500.30748478190407" r="0.6767876094335321" fill="#a78bfa" opacity="0.5060787527899989"/>
  <circle cx="337.70449103427353" cy="43.94070812556103" r="0.5312613007815912" fill="#fde68a" opacity="0.3575714547924886"/>
  <circle cx="793.2931637296974" cy="739.1038534290661" r="1.8986188493292049" fill="#22d3ee" opacity="0.18490137086577052"/>
  <circle cx="634.6732665571135" cy="631.5523343938706" r="1.9556242779992588" fill="#a78bfa" opacity="0.14126213627860978"/>
  <circle cx="354.8380717887587" cy="62.66112136154378" r="2.3604766238906425" fill="#fde68a" opacity="0.5312851669520862"/>
  <circle cx="16.798944630504042" cy="444.8200628993389" r="1.0400344861268365" fill="white" opacity="0.1350349612761273"/>
  <circle cx="55.39276393755408" cy="12.559131370758525" r="1.7660691064797025" fill="#a78bfa" opacity="0.37730895428672656"/>
  <circle cx="492.8975778815061" cy="275.20831733104455" r="0.6494962782959524" fill="white" opacity="0.2126269163483085"/>
  <circle cx="160.30638670762886" cy="142.27002753920388" r="2.0113467869571044" fill="#22d3ee" opacity="0.14982490492173745"/>
  <circle cx="434.7997461514336" cy="117.98196328398865" r="1.9723646813872027" fill="white" opacity="0.4572013401137662"/>
  <circle cx="412.67770666602746" cy="144.5376796395184" r="1.5084729598455824" fill="#a78bfa" opacity="0.12477716048218561"/>
  <circle cx="562.8524910338188" cy="116.13946253726333" r="1.7269544715321352" fill="white" opacity="0.20853109620884375"/>
  <circle cx="292.4830638467678" cy="14.563092961779756" r="2.3246473527945515" fill="#a78bfa" opacity="0.12838218766692305"/>
  <circle cx="688.3216248595579" cy="367.2815028593702" r="1.0537030539529293" fill="#a78bfa" opacity="0.5443771777506897"/>
  <circle cx="268.7372342970069" cy="227.2427501328468" r="2.059655393399377" fill="#a78bfa" opacity="0.4352108902748507"/>
  <circle cx="770.1665778632089" cy="798.7396941328878" r="2.4175863234549055" fill="white" opacity="0.4985493108032658"/>
  <circle cx="780.2472343543652" cy="459.00761969416334" r="1.4515466862367339" fill="#fde68a" opacity="0.5280048662469408"/>
  <circle cx="561.8747364649553" cy="56.89594916895197" r="1.8289089313540945" fill="#a78bfa" opacity="0.12784543180451424"/>
  <circle cx="47.91560323824662" cy="289.0309614470212" r="0.8735812874292448" fill="#a78bfa" opacity="0.15348832623238662"/>
  <circle cx="740.0846745068831" cy="548.249378059778" r="2.1429156231752784" fill="#22d3ee" opacity="0.5257001315139377"/>
  <circle cx="206.54010211589045" cy="156.756265479129" r="1.1428287350234514" fill="#22d3ee" opacity="0.5556585249498224"/>
  <circle cx="537.7517874903481" cy="91.37995340982235" r="1.4153222478940926" fill="#22d3ee" opacity="0.272541267321257"/>
  <circle cx="748.2527688609634" cy="680.60200966241" r="0.7488303569971388" fill="#fde68a" opacity="0.4432276260325228"/>
  <circle cx="775.9402935462449" cy="604.9414158348677" r="2.3727323621729832" fill="#a78bfa" opacity="0.2542875662839598"/>
  <circle cx="398.450919050158" cy="383.43175502891904" r="1.017079181139818" fill="#fde68a" opacity="0.4953317488219652"/>
  <circle cx="648.316858510558" cy="467.5483280061818" r="1.615061957687062" fill="#22d3ee" opacity="0.16289359880890858"/>
  <circle cx="617.6629561732672" cy="404.57109757984176" r="2.139720340444863" fill="#a78bfa" opacity="0.3299688380655247"/>
  <circle cx="68.65262560419706" cy="93.23963814810199" r="0.9929316558057546" fill="#22d3ee" opacity="0.15623256777825273"/>
  <circle cx="382.333947810976" cy="627.2508225977905" r="1.8106341558820174" fill="#fde68a" opacity="0.3634860597713699"/>
  <circle cx="795.949317098585" cy="712.8532929549256" r="1.9360436624576798" fill="white" opacity="0.41849358889824706"/>
  <circle cx="49.288626825291004" cy="256.0780478569189" r="1.3474907585332359" fill="#a78bfa" opacity="0.48681476090407194"/>
  <circle cx="458.4349525463081" cy="324.049200598932" r="0.7592730114092878" fill="white" opacity="0.49292464621314525"/>
  <circle cx="286.1965661988467" cy="3.753522709095858" r="0.9668181849660229" fill="#a78bfa" opacity="0.371591474246835"/>
  <circle cx="630.2732317732283" cy="598.8635909835033" r="1.2458343892163706" fill="#a78bfa" opacity="0.1495223771153497"/>
  <circle cx="326.4307763638442" cy="221.1419154635996" r="2.4890570195265624" fill="#a78bfa" opacity="0.3463457270767027"/>
  <circle cx="94.6527644670665" cy="211.9217715333968" r="2.4602245459749446" fill="#fde68a" opacity="0.14520784249955526"/>
  <circle cx="541.7003010554848" cy="414.56909499136447" r="0.7626335699332061" fill="#22d3ee" opacity="0.1334103195917744"/>
  <circle cx="463.8875730425725" cy="314.0439910218393" r="1.7772088828068733" fill="#22d3ee" opacity="0.3964741009843185"/>
  <circle cx="213.0585426761372" cy="476.7246718170906" r="1.9340380236332226" fill="#22d3ee" opacity="0.4791687937679456"/>
  <circle cx="521.8415273860738" cy="145.10662734619365" r="1.9694786560931539" fill="#a78bfa" opacity="0.2644972553879123"/>
  <circle cx="594.3532273889981" cy="587.9227982453169" r="1.6067265418641639" fill="#a78bfa" opacity="0.505614819426315"/>
  <circle cx="83.78041583248184" cy="526.8473072709663" r="2.0014020078441437" fill="#22d3ee" opacity="0.126056851504521"/>
  <circle cx="144.00065571377755" cy="2.539846790428957" r="0.8867202096317264" fill="#fde68a" opacity="0.08090991223289055"/>
  <circle cx="548.4906514351667" cy="428.41370560747583" r="2.14016488074636" fill="#fde68a" opacity="0.5224409183276933"/>
  <circle cx="194.53031623002727" cy="527.1923497486989" r="0.661250235687119" fill="white" opacity="0.08893271865505036"/>
  <circle cx="284.70329410313803" cy="709.2180957948256" r="1.657525820425963" fill="white" opacity="0.24525076356732145"/>
  <circle cx="659.6029781069033" cy="521.7083102019913" r="0.9987195229287664" fill="#22d3ee" opacity="0.5062553760434092"/>
  <circle cx="25.528784149967265" cy="35.699830008677665" r="0.6124620559967209" fill="white" opacity="0.17087658456764654"/>
  <circle cx="695.0907493830507" cy="765.1139275126292" r="2.310636473328678" fill="#a78bfa" opacity="0.1265432637955789"/>
  <circle cx="228.37541589973586" cy="482.2009818829408" r="1.9697702969147495" fill="#22d3ee" opacity="0.43651512519323454"/>
  <circle cx="128.53258484384656" cy="282.3739789253152" r="2.3500904140038683" fill="#22d3ee" opacity="0.5402295928384216"/>
  <circle cx="95.56958516874784" cy="262.13318364416523" r="2.472604201213726" fill="#fde68a" opacity="0.2782306476477612"/>
  <circle cx="12.006531329570524" cy="51.36494292826379" r="2.229093505923254" fill="white" opacity="0.5325820749586734"/>
  <circle cx="345.26229262863353" cy="79.03113981198393" r="1.0598783945751478" fill="#22d3ee" opacity="0.32090900777630166"/>
  <circle cx="349.3318907294873" cy="393.21636306910256" r="2.3016281021072382" fill="#a78bfa" opacity="0.5078602351731268"/>
  <circle cx="471.0788627951236" cy="51.2377134698605" r="0.8515783956805378" fill="#a78bfa" opacity="0.10845809645984615"/>
  <circle cx="680.9961897508617" cy="796.412555159244" r="1.944197565238205" fill="#fde68a" opacity="0.543643708738575"/>
  <circle cx="536.6177281068536" cy="751.5063012692397" r="1.186188232248096" fill="#a78bfa" opacity="0.23433166601129474"/>
  <circle cx="405.93274997445076" cy="353.86197562141604" r="1.142283114533491" fill="#22d3ee" opacity="0.14276274764751706"/>
  <circle cx="9.252689892372512" cy="308.2184078038795" r="0.9700814154900135" fill="#22d3ee" opacity="0.20537884800485384"/>
  <circle cx="604.2646403376826" cy="597.1284145379343" r="2.276820090742855" fill="#a78bfa" opacity="0.10594318034939841"/>
  <circle cx="266.9399146495408" cy="318.78721644313305" r="1.1019912943254286" fill="white" opacity="0.3049068033477776"/>
  <circle cx="559.262941402345" cy="130.6287676522908" r="0.8117088646307136" fill="#22d3ee" opacity="0.3976379673513663"/>
  <circle cx="736.7198011309603" cy="69.45203518372223" r="1.9200661855186476" fill="#fde68a" opacity="0.23636581380172783"/>
  <circle cx="283.5970787231732" cy="132.49512935498683" r="2.3552021065888615" fill="#a78bfa" opacity="0.5773553208925494"/>
  <circle cx="504.31937340037007" cy="220.65812101493165" r="1.6608520629059869" fill="#a78bfa" opacity="0.4616279142435697"/>
  <circle cx="369.529634812421" cy="671.1624516619831" r="2.1521113994614933" fill="#fde68a" opacity="0.5536071121899339"/>
  <circle cx="510.82121210086797" cy="613.1793578116651" r="1.3484120479303372" fill="white" opacity="0.18723599099856664"/>
  <circle cx="508.60630723609484" cy="716.6508143577133" r="1.5268773482152334" fill="#22d3ee" opacity="0.36637241642033114"/>
  <circle cx="612.3816119434113" cy="673.0757258997952" r="1.4641460031169882" fill="#a78bfa" opacity="0.13131583705891775"/>
  <circle cx="419.2393409762354" cy="524.0473016627084" r="2.4012920435215372" fill="#22d3ee" opacity="0.2823096544537539"/>
  <circle cx="286.7925096550048" cy="320.28077624029174" r="1.8887349483316553" fill="white" opacity="0.1493122533660307"/>
  <circle cx="313.7369576088656" cy="462.6249146002555" r="1.640233846018327" fill="#a78bfa" opacity="0.40817725571495095"/>
  <circle cx="745.8989902705836" cy="128.68265494962117" r="2.389137557076607" fill="#a78bfa" opacity="0.3348993208441645"/>
  <circle cx="460.9992580578015" cy="697.9203992793258" r="1.1816139481367551" fill="#a78bfa" opacity="0.3495291926250065"/>
  <circle cx="451.8025145060376" cy="588.3824963651268" r="1.0067699961587473" fill="white" opacity="0.46796774219924814"/>
  <circle cx="257.7622942632268" cy="270.1203117734499" r="1.2953017668617446" fill="#a78bfa" opacity="0.44164656225642285"/>
  <circle cx="108.77363480471827" cy="115.76421220694345" r="1.9554178095967472" fill="#a78bfa" opacity="0.554483834172974"/>
  <circle cx="283.3131934093094" cy="135.67538379627956" r="1.0480101629165375" fill="#fde68a" opacity="0.0896855470712553"/>
  <circle cx="198.1572131250533" cy="192.3356078808367" r="2.0859171823631053" fill="#22d3ee" opacity="0.38383223408383976"/>
  <circle cx="713.0550541192075" cy="175.34058381756506" r="1.7123845285736117" fill="#fde68a" opacity="0.0820086352715551"/>
  <circle cx="547.6829985624048" cy="448.48519629854945" r="2.102664930650792" fill="#22d3ee" opacity="0.24980513926311415"/>
  <circle cx="284.5701594979881" cy="752.1512975209768" r="0.8009876135959328" fill="white" opacity="0.13389309410469902"/>
  <circle cx="45.64316150096337" cy="273.5611209745702" r="0.936260326556219" fill="#22d3ee" opacity="0.4852585753186049"/>
  <circle cx="438.50546961184244" cy="647.5347087172499" r="2.4914278364865345" fill="#22d3ee" opacity="0.5088155121018304"/>
  <circle cx="300.9637738917525" cy="343.58290068533626" r="2.028048945749578" fill="#fde68a" opacity="0.5159672628532298"/>
  <circle cx="710.4100051671661" cy="512.8155322659464" r="1.802613468786985" fill="#a78bfa" opacity="0.1356309951827488"/>
  <circle cx="208.78580679383222" cy="356.8240331882" r="1.6862753994918585" fill="white" opacity="0.11088216426970747"/>
  <circle cx="272.00732130465394" cy="628.1471795473568" r="2.247230590954252" fill="#a78bfa" opacity="0.36614859360351726"/>
  <circle cx="783.2022571592184" cy="108.06734954408581" r="0.532084908395446" fill="#fde68a" opacity="0.38589105504097515"/>
  <circle cx="20.378523721996356" cy="155.9870406789762" r="1.9124225411988711" fill="#fde68a" opacity="0.21899529392494477"/>
  <circle cx="784.3170521866624" cy="748.9468881754926" r="2.249145696605199" fill="#22d3ee" opacity="0.11321889612157764"/>
  <circle cx="417.7254446723606" cy="49.085198009958916" r="0.8044482887542428" fill="#22d3ee" opacity="0.16268965836385113"/>
  <circle cx="569.8993514377984" cy="106.94177083286407" r="2.473458864713538" fill="white" opacity="0.4406882939370272"/>
  <circle cx="589.2190138180822" cy="640.868929475307" r="2.01452742410222" fill="#a78bfa" opacity="0.40888048784100195"/>
  <circle cx="195.43981730167383" cy="418.5011934528951" r="1.5930879568182357" fill="#22d3ee" opacity="0.41110537539672976"/>
</svg>