<svg xmlns="http://www.w3.org/2000/svg" viewBox="0 0 1200 700" width="1200" height="700">
  <defs><linearGradient id="g3bg" x1="0" y1="0" x2="0" y2="1"><stop offset="0%" stop-color="#020617"/><stop offset="45%" stop-color="#1a0a2e"/><stop offset="100%" stop-color="#020617"/></linearGradient></defs>
  <rect width="1200" height="700" fill="url(#g3bg)"/>
  <circle cx="326.5738499456931" cy="116.6998383499304" r="0.5974822935977598" fill="#a78bfa" opacity="0.04012109686343845"/>
  <circle cx="287.1292847242892" cy="26.685624617053747" r="0.8633408023796292" fill="#a78bfa" opacity="0.10058590379430042"/>
  <circle cx="188.85804778909957" cy="42.640599837998764" r="0.6933663535082835" fill="#a78bfa" opacity="0.08757445750271131"/>
  <circle cx="77.93574961046575" cy="451.9597680266618" r="0.9053917420845061" fill="#a78bfa" opacity="0.1080183275918741"/>
  <circle cx="185.19431430127375" cy="105.04750283090885" r="1.76571420155368" fill="#a78bfa" opacity="0.046890612119189774"/>
  <circle cx="686.8624098282784" cy="253.2774735837142" r="0.6909716604439831" fill="#a78bfa" opacity="0.18593494272947322"/>
  <circle cx="136.68304943826405" cy="259.1908229739979" r="0.9931522177883978" fill="#a78bfa" opacity="0.1833492838131234"/>
  <circle cx="101.52335752359889" cy="359.8760091698052" r="1.3263374757028" fill="#a78bfa" opacity="0.11510559959633393"/>
  <circle cx="93.00972763131448" cy="259.73565108752206" r="0.6367147600967964" fill="#a78bfa" opacity="0.145118023986595"/>
  <circle cx="450.13615128010815" cy="67.92902434191444" r="1.1463202992130344" fill="#a78bfa" opacity="0.04926605714169224"/>
  <circle cx="349.1176373645965" cy="457.761385446754" r="0.5300727320364396" fill="#a78bfa" opacity="0.15559962157718643"/>
  <circle cx="535.6356662801074" cy="555.7209538939812" r="1.7195649286891994" fill="#a78bfa" opacity="0.16812073391745436"/>
  <circle cx="532.507822141629" cy="578.6301887036217" r="1.2141672716674548" fill="#a78bfa" opacity="0.06696979971163325"/>
  <circle cx="403.5209666603629" cy="68.94119568182816" r="1.8328529012072043" fill="#a78bfa" opacity="0.0910797144880199"/>
  <circle cx="1085.2288237820737" cy="555.3403542368696" r="1.9829028520428502" fill="#a78bfa" opacity="0.1813246949600277"/>
  <circle cx="555.2729388447966" cy="541.8863643712365" r="0.6250050028658913" fill="#a78bfa" opacity="0.11314378058110977"/>
  <circle cx="74.64443208047" cy="673.1024818238304" r="1.5841179942389543" fill="#a78bfa" opacity="0.04868852003263145"/>
  <circle cx="1041.608821912404" cy="245.40160603803906" r="1.9056662454441886" fill="#a78bfa" opacity="0.10604538757348736"/>
  <circle cx="763.3504257723521" cy="456.32807239138486" r="0.6692059213685857" fill="#a78bfa" opacity="0.08390813603029382"/>
  <circle cx="979.767111899228" cy="467.3353950991491" r="0.5077704452515548" fill="#a78bfa" opacity="0.06230080759905737"/>
  <circle cx="945.4815292378235" cy="400.1920276013683" r="0.7813770332796195" fill="#a78bfa" opacity="0.1888395040169689"/>
  <circle cx="197.03477250659427" cy="632.5960207420278" r="0.8908557108799982" fill="#a78bfa" opacity="0.17515562289030118"/>
  <circle cx="385.24074006521334" cy="269.08675285535674" r="1.282773323692045" fill="#a78bfa" opacity="0.12278030902524711"/>
  <circle cx="502.53516057361924" cy="527.7398953277486" r="1.1147572567249158" fill="#a78bfa" opacity="0.11272805873926472"/>
  <circle cx="1134.7374775848396" cy="353.2542516782049" r="1.5046787580912573" fill="#a78bfa" opacity="0.1255304551134848"/>
  <circle cx="404.4362676044968" cy="666.8296150239701" r="1.9349741908935152" fill="#a78bfa" opacity="0.04448402766768091"/>
  <circle cx="348.05012550577123" cy="421.1802709631639" r="1.892370148035617" fill="#a78bfa" opacity="0.05331358037900504"/>
  <circle cx="1162.9991071350662" cy="370.175396107854" r="1.6443274143746882" fill="#a78bfa" opacity="0.09415786078117619"/>
  <circle cx="298.3190956656433" cy="223.3636901151562" r="1.0663656098560867" fill="#a78bfa" opacity="0.06728134017899982"/>
  <circle cx="666.2153363393661" cy="560.291146763691" r="1.3086922379198953" fill="#a78bfa" opacity="0.09802716281434534"/>
  <circle cx="587.3537892033632" cy="305.3407205996174" r="1.5068130594696194" fill="#a78bfa" opacity="0.09645003273354177"/>
  <circle cx="160.820729435036" cy="77.21348706025847" r="1.1631447631202207" fill="#a78bfa" opacity="0.1717372778735577"/>
  <circle cx="452.90035385978024" cy="452.46247073492884" r="1.2336855033551686" fill="#a78bfa" opacity="0.0597985108142116"/>
  <circle cx="352.717079086979" cy="255.97341674816926" r="0.5609101258053986" fill="#a78bfa" opacity="0.052113486463282725"/>
  <circle cx="320.80397907130936" cy="0.8502626812276426" r="1.0241605248033088" fill="#a78bfa" opacity="0.18351881168268927"/>
  <circle cx="166.26356485545983" cy="661.2406140423192" r="1.587575391319258" fill="#a78bfa" opacity="0.1436947900928823"/>
  <circle cx="198.96986061025345" cy="160.40233825200832" r="0.6788080435045757" fill="#a78bfa" opacity="0.1521529687617437"/>
  <circle cx="858.0582746567744" cy="76.49408026044844" r="1.4475019666725375" fill="#a78bfa" opacity="0.047377196209413865"/>
  <circle cx="801.275400721078" cy="18.97445191340561" r="1.380763273442446" fill="#a78bfa" opacity="0.0433769831097186"/>
  <circle cx="452.0679406186796" cy="374.0720569363566" r="1.5655397829151982" fill="#a78bfa" opacity="0.16385527369080416"/>
  <circle cx="1056.3622757100889" cy="694.7064707593277" r="1.8402513833481922" fill="#a78bfa" opacity="0.09397951499655444"/>
  <circle cx="937.1721979861819" cy="206.29125485399706" r="1.3398937013342727" fill="#a78bfa" opacity="0.049321048190238914"/>
  <circle cx="870.8912693675734" cy="98.72560498984477" r="0.5509581417206768" fill="#a78bfa" opacity="0.18556210335145742"/>
  <circle cx="818.9042142156361" cy="630.8318355545014" r="1.4491434539552324" fill="#a78bfa" opacity="0.17189486830854495"/>
  <circle cx="361.41858883076566" cy="371.9973443188773" r="0.8067352668953919" fill="#a78bfa" opacity="0.16718317024631027"/>
  <circle cx="578.3010844334848" cy="2.8496678683773147" r="1.936138312777498" fill="#a78bfa" opacity="0.1599056188127437"/>
  <circle cx="1051.701572109694" cy="359.0399003516111" r="1.1061558158011873" fill="#a78bfa" opacity="0.07709700448305024"/>
  <circle cx="908.2526087563756" cy="558.5411392973947" r="0.7857246826888831" fill="#a78bfa" opacity="0.09469211278120357"/>
  <circle cx="741.6767051505303" cy="192.41190721860565" r="0.8173535938647845" fill="#a78bfa" opacity="0.14436238812432428"/>
  <circle cx="837.9789182598074" cy="321.2885167257317" r="0.6924323863974763" fill="#a78bfa" opacity="0.12359270433499792"/>
  <circle cx="728.6576567554765" cy="103.54277268774025" r="0.8662562669583771" fill="#a78bfa" opacity="0.09902314483453092"/>
  <circle cx="965.682589388045" cy="251.53170344015294" r="1.2101123198932622" fill="#a78bfa" opacity="0.15327921549752188"/>
  <circle cx="733.7113586553272" cy="196.90780158706065" r="0.7689846112108301" fill="#a78bfa" opacity="0.1239266762258748"/>
  <circle cx="766.8479926690289" cy="388.2421661829486" r="1.4354732682197435" fill="#a78bfa" opacity="0.0717851449635882"/>
  <circle cx="491.12144784980165" cy="221.928398999369" r="0.7149427737532712" fill="#a78bfa" opacity="0.17954377665381"/>
  <circle cx="411.12364972468595" cy="616.560368916996" r="1.9527008988529495" fill="#a78bfa" opacity="0.18986222227960856"/>
  <circle cx="5.829482376288464" cy="329.22236538711036" r="1.6231200892643982" fill="#a78bfa" opacity="0.06182726058258014"/>
  <circle cx="157.24779110364224" cy="672.7459506762191" r="1.1071774997584503" fill="#a78bfa" opacity="0.040127808490659604"/>
  <circle cx="660.8117464840028" cy="272.0572895289052" r="1.5677897960883134" fill="#a78bfa" opacity="0.05367280646865338"/>
  <circle cx="1128.566596844773" cy="514.9983824354725" r="0.6008811651050875" fill="#a78bfa" opacity="0.14815407191113794"/>
  <rect x="440" y="220" width="320" height="220" rx="16" fill="rgba(2,6,23,0.4)" stroke="#a78bfa" stroke-width="1" opacity="0.3"/>
  <rect x="448" y="228" width="304" height="204" rx="14" fill="none" stroke="#fde68a" stroke-width="0.5" opacity="0.15"/>
  <text x="600" y="290" text-anchor="middle" fill="#a78bfa" font-family="serif" font-size="24" opacity="0.3">✦</text>
  <line x1="480" y1="330" x2="720" y2="330" stroke="#fde68a" stroke-width="1.056903857366195" opacity="0.12"/>
  <line x1="480" y1="358" x2="720" y2="358" stroke="#fde68a" stroke-width="0.7921296939264674" opacity="0.12"/>
  <line x1="480" y1="386" x2="720" y2="386" stroke="#fde68a" stroke-width="0.791282601089503" opacity="0.12"/>
  <line x1="480" y1="414" x2="720" y2="414" stroke="#fde68a" stroke-width="0.8523883048590294" opacity="0.12"/>
  <line x1="480" y1="442" x2="720" y2="442" stroke="#fde68a" stroke-width="1.493922106381008" opacity="0.12"/>
  <line x1="480" y1="470" x2="720" y2="470" stroke="#fde68a" stroke-width="1.310217788060183" opacity="0.12"/>
  <path d="M 300 500 Q 600 420 900 500" fill="none" stroke="#a78bfa" stroke-width="0.8" opacity="0.12"/>
  <path d="M 350 530 Q 600 460 850 530" fill="none" stroke="#f472b6" stroke-width="0.5" opacity="0.08"/>
  <text x="600" y="670" text-anchor="middle" fill="#a78bfa" font-family="monospace" font-size="12" opacity="0.25" letter-spacing="6">✦ GLOWING GRIMOIRE ✦</text>
</svg>