<svg xmlns="http://www.w3.org/2000/svg" viewBox="0 0 1200 700" width="1200" height="700">
  <defs>
    <linearGradient id="g1bg" x1="0" y1="0" x2="0" y2="1"><stop offset="0%" stop-color="#020617"/><stop offset="50%" stop-color="#0f172a"/><stop offset="100%" stop-color="#020617"/></linearGradient>
    <radialGradient id="g1moon" cx="50%" cy="50%" r="50%"><stop offset="0%" stop-color="#fde68a" stop-opacity="0.3"/><stop offset="60%" stop-color="#fde68a" stop-opacity="0.1"/><stop offset="100%" stop-color="transparent"/></radialGradient>
  </defs>
  <rect width="1200" height="700" fill="url(#g1bg)"/>
  <circle cx="600" cy="320" r="220" fill="url(#g1moon)"/>
  <circle cx="600" cy="320" r="140" fill="none" stroke="#fde68a" stroke-width="0.5" opacity="0.3"/>
  <circle cx="600" cy="320" r="100" fill="none" stroke="#22d3ee" stroke-width="1" opacity="0.15"/>
  <circle cx="750.6543590153266" cy="566.3909486341665" r="0.9627283403898168" fill="white" opacity="0.3347545037361097"/>
  <circle cx="87.25602963108767" cy="611.6090624864196" r="2.041831978056158" fill="white" opacity="0.17740962966017926"/>
  <circle cx="931.3256885681891" cy="304.9608993791335" r="2.1200264454412414" fill="white" opacity="0.24735204102881675"/>
  <circle cx="138.11881221366428" cy="282.54850805131645" r="1.5202708176651876" fill="white" opacity="0.1255927912849739"/>
  <circle cx="256.22319543054715" cy="52.15476474734548" r="0.60339764555061" fill="white" opacity="0.19459665044705177"/>
  <circle cx="492.20454061741276" cy="387.0466276787668" r="2.3788404659760163" fill="white" opacity="0.23317752653867257"/>
  <circle cx="453.82791285672226" cy="373.25157135842187" r="1.8590784721593883" fill="white" opacity="0.1118870759931045"/>
  <circle cx="1056.2768655473812" cy="634.2116281800711" r="0.7760172243686683" fill="white" opacity="0.11584136437765596"/>
  <circle cx="131.24542265146033" cy="163.82702186561673" r="2.4406804670509743" fill="white" opacity="0.2355124246978948"/>
  <circle cx="1125.5586986792741" cy="516.7080731367292" r="1.6696042654679868" fill="white" opacity="0.13588652760233438"/>
  <circle cx="25.264670854107905" cy="547.6080372461005" r="2.4939768781102387" fill="white" opacity="0.325712914236918"/>
  <circle cx="43.09202877993137" cy="625.4737637712999" r="1.2225245702579124" fill="white" opacity="0.11159287266772537"/>
  <circle cx="652.6189169664729" cy="2.0217206941313792" r="2.4331444473571864" fill="white" opacity="0.3039887852185245"/>
  <circle cx="652.1865812711517" cy="136.89552149190797" r="0.7337159261537967" fill="white" opacity="0.12685760610285257"/>
  <circle cx="361.61683874486715" cy="249.95182629110565" r="2.2614107050240086" fill="white" opacity="0.13310720878190532"/>
  <circle cx="900.5613905379648" cy="361.36975381799294" r="0.7103060175349512" fill="white" opacity="0.16277930722488804"/>
  <circle cx="25.481057014077322" cy="155.12916526627083" r="1.9609633747786528" fill="white" opacity="0.28803036035700874"/>
  <circle cx="412.26856555418794" cy="129.57937609791864" r="2.107792784797539" fill="white" opacity="0.326487184863237"/>
  <circle cx="77.04623395504969" cy="528.2959056524267" r="2.065347933233748" fill="white" opacity="0.2799556780595509"/>
  <circle cx="294.76778946156344" cy="308.25634937363924" r="0.7112165291931221" fill="white" opacity="0.2288600307523712"/>
  <circle cx="891.2803516946846" cy="159.70343101084373" r="0.948962387817873" fill="white" opacity="0.23818849225396155"/>
  <circle cx="482.04646066792884" cy="561.4337480405134" r="1.1586205957313764" fill="white" opacity="0.2719363501973928"/>
  <circle cx="246.24464976807903" cy="302.2104302438019" r="0.6372659910564946" fill="white" opacity="0.2202637647795378"/>
  <circle cx="959.5656822044498" cy="372.44859750045043" r="0.832110030584112" fill="white" opacity="0.3432679181399221"/>
  <circle cx="875.9122487852911" cy="30.534685497340732" r="1.2891542510682692" fill="white" opacity="0.2914006581307933"/>
  <circle cx="904.0825948891703" cy="352.1101579666785" r="1.870836004079425" fill="white" opacity="0.23212595128137614"/>
  <circle cx="1130.519595662671" cy="475.82278688795526" r="2.1151637002588277" fill="white" opacity="0.16491599120583816"/>
  <circle cx="353.54860864669024" cy="651.534836833173" r="2.092098577774922" fill="white" opacity="0.17367867101282547"/>
  <circle cx="132.66187797709108" cy="565.5144228417137" r="1.6480718258841016" fill="white" opacity="0.10508661686593074"/>
  <circle cx="916.467546558514" cy="415.47542066060305" r="0.7277875629757846" fill="white" opacity="0.2588087995955337"/>
  <circle cx="145.3357291755704" cy="195.50260053873643" r="2.1266642886053395" fill="white" opacity="0.1557795214990436"/>
  <circle cx="904.4673859290912" cy="349.6744664962049" r="2.2562225757638776" fill="white" opacity="0.18586514920722763"/>
  <circle cx="750.4619407292396" cy="646.9268767374009" r="2.3067521264806485" fill="white" opacity="0.2867328676174526"/>
  <circle cx="824.8325601478364" cy="74.20325837450903" r="2.4792867391837916" fill="white" opacity="0.14519373354339535"/>
  <circle cx="1094.7505864755894" cy="397.0809475842307" r="1.7237124183394514" fill="white" opacity="0.20256836036806136"/>
  <circle cx="706.4226911336561" cy="588.2598561040222" r="2.4860133525327095" fill="white" opacity="0.057142693418124814"/>
  <circle cx="786.4695131302898" cy="22.866316260567153" r="1.2432782507698583" fill="white" opacity="0.0845235808810192"/>
  <circle cx="917.714811246981" cy="301.3440707546986" r="1.6592450678061388" fill="white" opacity="0.21562685244898516"/>
  <circle cx="538.3949406011106" cy="640.7707643192413" r="2.317319020690382" fill="white" opacity="0.07669041436915848"/>
  <circle cx="164.99603246179797" cy="553.435480454934" r="0.7240281011628611" fill="white" opacity="0.14726303278608233"/>
  <circle cx="199.46442518590638" cy="580.1893200043783" r="1.1250647740742132" fill="white" opacity="0.05720332293341457"/>
  <circle cx="859.1723271250021" cy="693.7996995541478" r="2.177047398263669" fill="white" opacity="0.27280540166384354"/>
  <circle cx="269.2879658092367" cy="577.5049007811473" r="0.8189539337256604" fill="white" opacity="0.3017834011317572"/>
  <circle cx="624.1491052421119" cy="5.5986194670116785" r="0.5437630440017183" fill="white" opacity="0.14995024169712703"/>
  <circle cx="480.6800669200898" cy="511.0351055871752" r="1.0697432947424133" fill="white" opacity="0.18779961573280302"/>
  <circle cx="56.17464250046487" cy="607.7432677757624" r="1.6848397870270055" fill="white" opacity="0.1138869105973354"/>
  <circle cx="748.4312308541123" cy="40.33598401024941" r="1.6544454122726369" fill="white" opacity="0.245125671595313"/>
  <circle cx="526.4434246603722" cy="369.3863181824355" r="0.6455166097508485" fill="white" opacity="0.2313563130047832"/>
  <circle cx="750.3276097240151" cy="101.57810299325854" r="1.7143945975945876" fill="white" opacity="0.20554134476857117"/>
  <circle cx="975.9165018661525" cy="508.768147518026" r="1.3566055367961587" fill="white" opacity="0.11731782910903901"/>
  <circle cx="1037.510853356707" cy="382.52856797926813" r="0.8543738088799593" fill="white" opacity="0.12411854027650612"/>
  <circle cx="223.11075813130827" cy="526.5951477640391" r="0.6448760009615395" fill="white" opacity="0.1352529980193432"/>
  <circle cx="398.45367327570085" cy="123.63385352161238" r="2.0125335992073747" fill="white" opacity="0.2484644153106444"/>
  <circle cx="1123.0754654898142" cy="568.7637343815521" r="1.4559326821898158" fill="white" opacity="0.19338394925417618"/>
  <circle cx="428.84593353234806" cy="430.5524724668859" r="1.3018356865935583" fill="white" opacity="0.07499768489706912"/>
  <circle cx="473.31591941015716" cy="86.92884467643376" r="1.349446080193065" fill="white" opacity="0.3404552168214316"/>
  <circle cx="773.5980382613561" cy="656.4305478394488" r="0.7259696218701932" fill="white" opacity="0.29122204051878225"/>
  <circle cx="428.98901109526895" cy="506.6548858627779" r="1.774720491741455" fill="white" opacity="0.25023382987006354"/>
  <circle cx="71.83771504712611" cy="291.87707502112903" r="1.2921435837991664" fill="white" opacity="0.22076074906104282"/>
  <circle cx="316.64896721168907" cy="157.25826556087392" r="1.6990713807340463" fill="white" opacity="0.09470071292409712"/>
  <circle cx="587.6474987782578" cy="328.96573499327667" r="1.9639963493388586" fill="white" opacity="0.2599904097769262"/>
  <circle cx="149.73865876517922" cy="478.84682543220885" r="1.8736865811300487" fill="white" opacity="0.2971881921604374"/>
  <circle cx="754.3884458510515" cy="250.75910763059596" r="1.7007425752633647" fill="white" opacity="0.32005110296277417"/>
  <circle cx="447.61049192839903" cy="699.888371714815" r="1.1927568839314129" fill="white" opacity="0.22965497645908367"/>
  <circle cx="387.44567517494903" cy="418.11340176637714" r="0.6608941246195632" fill="white" opacity="0.21466918004958974"/>
  <circle cx="1195.8987812910211" cy="574.3660857730821" r="1.4472418614418745" fill="white" opacity="0.17409754137141514"/>
  <circle cx="635.4321371770691" cy="85.55777780230224" r="1.4261157347919131" fill="white" opacity="0.23853249975439889"/>
  <circle cx="1018.6994160849391" cy="418.69106463660046" r="1.3922737114907267" fill="white" opacity="0.24326615255715045"/>
  <circle cx="225.65816435579595" cy="161.92941440135706" r="0.7318151208733246" fill="white" opacity="0.2183161495079718"/>
  <circle cx="345.6071174056426" cy="144.06662746027533" r="1.5334629950723573" fill="white" opacity="0.2308363974163869"/>
  <circle cx="467.4913631598297" cy="466.99527827695863" r="2.2447138038715035" fill="white" opacity="0.29294936882207523"/>
  <circle cx="884.1182719672036" cy="630.4450521971501" r="0.7318230342388254" fill="white" opacity="0.3418913248217071"/>
  <circle cx="507.12955474895665" cy="475.38406322480387" r="2.090561399691945" fill="white" opacity="0.22620253340358099"/>
  <circle cx="857.9405189316806" cy="172.74795571689887" r="1.8202088185027447" fill="white" opacity="0.20217230627938582"/>
  <circle cx="364.4687739583112" cy="463.37479082685127" r="0.5483193123710024" fill="white" opacity="0.15617924785599074"/>
  <circle cx="49.7907166386494" cy="60.9858145942457" r="1.6526566886781398" fill="white" opacity="0.29446251392731704"/>
  <circle cx="463.32365969656405" cy="50.41467402948431" r="1.8418826716757468" fill="white" opacity="0.09286140015955877"/>
  <circle cx="199.65643609396344" cy="204.57070925342973" r="2.1478170628397857" fill="white" opacity="0.29259398009941023"/>
  <circle cx="508.9102331796205" cy="565.7928499889691" r="1.5613532416766862" fill="white" opacity="0.11252116510764411"/>
  <circle cx="156.1575761956946" cy="117.14397334008005" r="0.9542994961426947" fill="white" opacity="0.14558213670447395"/>
  <path d="M 100 600 Q 300 500 600 550 T 1100 580" fill="none" stroke="#22d3ee" stroke-width="0.8" opacity="0.2"/>
  <g opacity="0.15"><path d="M 117.6644147343433 519.5520538760496 Q 132.6644147343433 479.5520538760496 147.6644147343433 519.5520538760496" fill="none" stroke="#f472b6" stroke-width="1"/>
    <path d="M 136.05624103148753 542.567769913214 Q 151.05624103148753 502.56776991321397 166.05624103148753 542.567769913214" fill="none" stroke="#f472b6" stroke-width="1"/>
    <path d="M 171.0429373118441 467.22338593880625 Q 186.0429373118441 427.22338593880625 201.0429373118441 467.22338593880625" fill="none" stroke="#f472b6" stroke-width="1"/>
    <path d="M 206.90393217267146 590.7686762292653 Q 221.90393217267146 550.7686762292653 236.90393217267146 590.7686762292653" fill="none" stroke="#f472b6" stroke-width="1"/>
    <path d="M 254.62460833898453 559.5086743529752 Q 269.62460833898456 519.5086743529752 284.62460833898456 559.5086743529752" fill="none" stroke="#f472b6" stroke-width="1"/>
    <path d="M 290.19270840695924 474.8477397704378 Q 305.19270840695924 434.8477397704378 320.19270840695924 474.8477397704378" fill="none" stroke="#f472b6" stroke-width="1"/>
    <path d="M 322.01274024193475 588.82286618087 Q 337.01274024193475 548.82286618087 352.01274024193475 588.82286618087" fill="none" stroke="#f472b6" stroke-width="1"/>
    <path d="M 354.7035408868147 597.3604992719708 Q 369.7035408868147 557.3604992719708 384.7035408868147 597.3604992719708" fill="none" stroke="#f472b6" stroke-width="1"/>
    <path d="M 380.45851590651813 530.0667368356078 Q 395.45851590651813 490.0667368356078 410.45851590651813 530.0667368356078" fill="none" stroke="#f472b6" stroke-width="1"/>
    <path d="M 434.67772355901496 520.2035489956232 Q 449.67772355901496 480.20354899562324 464.67772355901496 520.2035489956232" fill="none" stroke="#f472b6" stroke-width="1"/>
    <path d="M 457.1687456201967 458.8434243821851 Q 472.1687456201967 418.8434243821851 487.1687456201967 458.8434243821851" fill="none" stroke="#f472b6" stroke-width="1"/>
    <path d="M 502.11452379610796 560.382707258447 Q 517.114523796108 520.382707258447 532.114523796108 560.382707258447" fill="none" stroke="#f472b6" stroke-width="1"/>
    <path d="M 539.8157301064275 511.222478681836 Q 554.8157301064275 471.222478681836 569.8157301064275 511.222478681836" fill="none" stroke="#f472b6" stroke-width="1"/>
    <path d="M 563.5366415289255 512.7400236789533 Q 578.5366415289255 472.7400236789533 593.5366415289255 512.7400236789533" fill="none" stroke="#f472b6" stroke-width="1"/>
    <path d="M 605.7715029988085 519.778862634774 Q 620.7715029988085 479.778862634774 635.7715029988085 519.778862634774" fill="none" stroke="#f472b6" stroke-width="1"/>
    <path d="M 642.0244798727563 477.8508515190159 Q 657.0244798727563 437.8508515190159 672.0244798727563 477.8508515190159" fill="none" stroke="#f472b6" stroke-width="1"/>
    <path d="M 674.6660883523971 510.43646245362555 Q 689.6660883523971 470.43646245362555 704.6660883523971 510.43646245362555" fill="none" stroke="#f472b6" stroke-width="1"/>
    <path d="M 702.937681013959 552.2099854058395 Q 717.937681013959 512.2099854058395 732.937681013959 552.2099854058395" fill="none" stroke="#f472b6" stroke-width="1"/>
    <path d="M 738.3164492398365 539.4161467859406 Q 753.3164492398365 499.41614678594055 768.3164492398365 539.4161467859406" fill="none" stroke="#f472b6" stroke-width="1"/>
    <path d="M 776.5987811109264 558.6506672326323 Q 791.5987811109264 518.6506672326323 806.5987811109264 558.6506672326323" fill="none" stroke="#f472b6" stroke-width="1"/>
    <path d="M 811.0238209367566 503.0924040061893 Q 826.0238209367566 463.0924040061893 841.0238209367566 503.0924040061893" fill="none" stroke="#f472b6" stroke-width="1"/>
    <path d="M 843.1367510522382 454.4955111869739 Q 858.1367510522382 414.4955111869739 873.1367510522382 454.4955111869739" fill="none" stroke="#f472b6" stroke-width="1"/>
    <path d="M 870.6081876927874 550.024539242873 Q 885.6081876927874 510.02453924287295 900.6081876927874 550.024539242873" fill="none" stroke="#f472b6" stroke-width="1"/>
    <path d="M 921.4796078163541 471.0701887279019 Q 936.4796078163541 431.0701887279019 951.4796078163541 471.0701887279019" fill="none" stroke="#f472b6" stroke-width="1"/>
    <path d="M 957.7898742509002 588.3531541823829 Q 972.7898742509002 548.3531541823829 987.7898742509002 588.3531541823829" fill="none" stroke="#f472b6" stroke-width="1"/>
    <path d="M 975.7388044043313 566.0566652759676 Q 990.7388044043313 526.0566652759676 1005.7388044043313 566.0566652759676" fill="none" stroke="#f472b6" stroke-width="1"/>
    <path d="M 1017.3148860294908 574.8215193895442 Q 1032.314886029491 534.8215193895442 1047.314886029491 574.8215193895442" fill="none" stroke="#f472b6" stroke-width="1"/>
    <path d="M 1054.046082454016 547.7895856017775 Q 1069.046082454016 507.7895856017775 1084.046082454016 547.7895856017775" fill="none" stroke="#f472b6" stroke-width="1"/>
    <path d="M 1091.3323482364108 506.45916878756657 Q 1106.3323482364108 466.45916878756657 1121.3323482364108 506.45916878756657" fill="none" stroke="#f472b6" stroke-width="1"/>
    <path d="M 1122.2646371802714 556.3792622531151 Q 1137.2646371802714 516.3792622531151 1152.2646371802714 556.3792622531151" fill="none" stroke="#f472b6" stroke-width="1"/></g>
  <text x="600" y="660" text-anchor="middle" fill="#22d3ee" font-family="monospace" font-size="12" opacity="0.3" letter-spacing="6">✦ CLOUD CITY ✦</text>
</svg>