<svg xmlns="http://www.w3.org/2000/svg" viewBox="0 0 1200 700" width="1200" height="700">
  <defs><linearGradient id="g4bg" x1="0" y1="0" x2="0" y2="1"><stop offset="0%" stop-color="#1e1b4b"/><stop offset="50%" stop-color="#2e1065"/><stop offset="100%" stop-color="#020617"/></linearGradient></defs>
  <rect width="1200" height="700" fill="url(#g4bg)"/>
  <circle cx="800" cy="200" r="180" fill="#fde68a" opacity="0.04"/>
  <circle cx="800" cy="200" r="80" fill="#fde68a" opacity="0.06"/>
  <path d="M 500 600 L 520 350 L 600 300 L 520 350 L 540 600" fill="none" stroke="#fde68a" stroke-width="1" opacity="0.15"/>
  <path d="M 680 600 L 660 350 L 580 300 L 660 350 L 640 600" fill="none" stroke="#fde68a" stroke-width="1" opacity="0.12"/>
  <path d="M 440 600 Q 560 520 600 480 Q 640 520 760 600" fill="none" stroke="#f472b6" stroke-width="0.8" opacity="0.15"/>
  <path d="M 574.7368123173784 118.72018859339902 Q 584.7368123173784 103.72018859339902 594.7368123173784 118.72018859339902" fill="none" stroke="#f472b6" stroke-width="1" opacity="0.12"/>
  <path d="M 337.238829826867 508.36485074869796 Q 347.238829826867 493.36485074869796 357.238829826867 508.36485074869796" fill="none" stroke="#f472b6" stroke-width="1" opacity="0.12"/>
  <path d="M 392.93640207218596 296.2860064190019 Q 402.93640207218596 281.2860064190019 412.93640207218596 296.2860064190019" fill="none" stroke="#f472b6" stroke-width="1" opacity="0.12"/>
  <path d="M 233.42821841163666 308.996587213169 Q 243.42821841163666 293.996587213169 253.42821841163666 308.996587213169" fill="none" stroke="#f472b6" stroke-width="1" opacity="0.12"/>
  <path d="M 700.7725869710413 510.2582200505681 Q 710.7725869710413 495.2582200505681 720.7725869710413 510.2582200505681" fill="none" stroke="#f472b6" stroke-width="1" opacity="0.12"/>
  <path d="M 750.8300579287877 577.0264595099471 Q 760.8300579287877 562.0264595099471 770.8300579287877 577.0264595099471" fill="none" stroke="#f472b6" stroke-width="1" opacity="0.12"/>
  <path d="M 801.231434227615 125.66278086879879 Q 811.231434227615 110.66278086879879 821.231434227615 125.66278086879879" fill="none" stroke="#f472b6" stroke-width="1" opacity="0.12"/>
  <path d="M 314.95464488428036 378.23286211394014 Q 324.95464488428036 363.23286211394014 334.95464488428036 378.23286211394014" fill="none" stroke="#f472b6" stroke-width="1" opacity="0.12"/>
  <path d="M 691.2891479647558 339.03956478380627 Q 701.2891479647558 324.03956478380627 711.2891479647558 339.03956478380627" fill="none" stroke="#f472b6" stroke-width="1" opacity="0.12"/>
  <path d="M 315.728870253621 408.1564741733639 Q 325.728870253621 393.1564741733639 335.728870253621 408.1564741733639" fill="none" stroke="#f472b6" stroke-width="1" opacity="0.12"/>
  <path d="M 397.7290825578319 447.5982560589148 Q 407.7290825578319 432.5982560589148 417.7290825578319 447.5982560589148" fill="none" stroke="#f472b6" stroke-width="1" opacity="0.12"/>
  <path d="M 635.1987879714318 129.93307191670462 Q 645.1987879714318 114.93307191670462 655.1987879714318 129.93307191670462" fill="none" stroke="#f472b6" stroke-width="1" opacity="0.12"/>
  <path d="M 229.9108228198828 508.3496974859421 Q 239.9108228198828 493.3496974859421 249.9108228198828 508.3496974859421" fill="none" stroke="#f472b6" stroke-width="1" opacity="0.12"/>
  <path d="M 794.8668894067564 264.86936278761686 Q 804.8668894067564 249.86936278761686 814.8668894067564 264.86936278761686" fill="none" stroke="#f472b6" stroke-width="1" opacity="0.12"/>
  <path d="M 801.7456113693092 368.15208250653745 Q 811.7456113693092 353.15208250653745 821.7456113693092 368.15208250653745" fill="none" stroke="#f472b6" stroke-width="1" opacity="0.12"/>
  <path d="M 222.66257809776616 355.3213158080774 Q 232.66257809776616 340.3213158080774 242.66257809776616 355.3213158080774" fill="none" stroke="#f472b6" stroke-width="1" opacity="0.12"/>
  <path d="M 890.2315422973998 365.52013029211156 Q 900.2315422973998 350.52013029211156 910.2315422973998 365.52013029211156" fill="none" stroke="#f472b6" stroke-width="1" opacity="0.12"/>
  <path d="M 676.7760156567488 313.85482732655925 Q 686.7760156567488 298.85482732655925 696.7760156567488 313.85482732655925" fill="none" stroke="#f472b6" stroke-width="1" opacity="0.12"/>
  <path d="M 311.4801640918262 586.9159240795776 Q 321.4801640918262 571.9159240795776 331.4801640918262 586.9159240795776" fill="none" stroke="#f472b6" stroke-width="1" opacity="0.12"/>
  <path d="M 523.4972708889666 516.0224144635677 Q 533.4972708889666 501.02241446356766 543.4972708889666 516.0224144635677" fill="none" stroke="#f472b6" stroke-width="1" opacity="0.12"/>
  <text x="600" y="670" text-anchor="middle" fill="#f472b6" font-family="monospace" font-size="12" opacity="0.25" letter-spacing="6">✦ SAKURA SHRINE ✦</text>
</svg>